M48
;GenerationSoftware,Autodesk,EAGLE,9.6.2*%
;CreationDate,2020-10-26T01:49:43Z*%
FMAT,2
ICI,OFF
METRIC,TZ,000.000
T9C0.350
T8C0.700
T7C0.800
T6C0.900
T5C0.965
T4C1.000
T3C1.016
T2C1.200
T1C3.000
%
G90
M71
T1
X4000Y4000
X53000Y4000
X4000Y87000
X53000Y87000
T2
X3610Y23060
X53390Y12830
X53390Y9330
X3750Y33270
X3610Y12700
X3610Y19560
X3750Y29770
X3610Y9200
X53500Y22740
X53500Y19240
X53500Y29620
X53500Y33120
T3
X24000Y23990
X33070Y15660
X33070Y10580
X33070Y13120
X14870Y84740
X42920Y85000
X45460Y85000
X48000Y85000
X24880Y2880
X22340Y2880
X19800Y2880
X32340Y3120
X34880Y3120
X37420Y3120
X9790Y84740
X12330Y84740
X23750Y15710
X23750Y13170
X23750Y10630
X33000Y24110
X33000Y26650
X33000Y29190
X24000Y29070
X24000Y26530
T4
X11000Y42000
X3000Y60000
X11000Y21000
T5
X41690Y58670
X39150Y58670
X36610Y58670
X34070Y58670
X31530Y58670
X28990Y58670
X23910Y58670
X21370Y58670
X21370Y43430
X23910Y43430
X26450Y43430
X28990Y43430
X31530Y43430
X34070Y43430
X36610Y43430
X39150Y43430
X41690Y43430
X44230Y43430
X46770Y43430
X51850Y43430
X54390Y58670
X21370Y51050
X21370Y45970
X21370Y56130
X26450Y58670
X54390Y43430
X21370Y48510
X51850Y58670
X49310Y58670
X46770Y58670
X44230Y58670
X49310Y43430
X21370Y53590
T6
X20870Y74030
X36010Y74070
X23750Y66440
X23750Y74060
X10120Y57260
X2500Y57260
X30010Y66470
X10970Y15180
X46370Y24820
X11090Y10820
X38750Y24820
X18710Y10820
X46320Y28930
X38700Y28930
X30010Y74090
X18590Y15180
X33010Y66360
X33010Y73980
X39770Y14820
X47390Y14820
X39610Y10820
X47230Y10820
X26930Y66450
X26930Y74070
X36010Y66450
X18710Y24630
X11090Y24630
X20870Y66410
X11380Y28620
X19000Y28620
T7
X23621Y85532
X22351Y87468
X35819Y85392
X34295Y87328
X32771Y85392
X4330Y65910
X31501Y87328
X4330Y63370
X4330Y76070
X4330Y73530
X4330Y81150
X4330Y68450
X4330Y70990
X42820Y65910
X42820Y78610
X42820Y63370
X42820Y76070
X42820Y73530
X42820Y81150
X42820Y68450
X42820Y70990
X26669Y85532
X25145Y87468
X4330Y78610
T8
X14630Y2450
X14630Y4990
X6390Y40630
X3850Y40630
X43630Y2530
X43630Y5070
T9
X10000Y45000
X34000Y55000
M30