G04 EAGLE Gerber RS-274X export*
G75*
%MOMM*%
%FSLAX34Y34*%
%LPD*%
%INBottom Copper*%
%IPPOS*%
%AMOC8*
5,1,8,0,0,1.08239X$1,22.5*%
G01*
%ADD10C,1.651000*%
%ADD11C,1.524000*%
%ADD12C,1.676400*%
%ADD13P,1.814519X8X292.500000*%
%ADD14C,1.879600*%
%ADD15C,1.473200*%
%ADD16P,2.489497X8X112.500000*%
%ADD17P,2.489497X8X292.500000*%
%ADD18C,1.778000*%
%ADD19C,2.000000*%
%ADD20C,0.500000*%
%ADD21C,1.000000*%
%ADD22C,0.250000*%
%ADD23C,0.756400*%
%ADD24C,1.500000*%

G36*
X559098Y10164D02*
X559098Y10164D01*
X559117Y10162D01*
X559219Y10184D01*
X559321Y10200D01*
X559338Y10210D01*
X559358Y10214D01*
X559447Y10267D01*
X559538Y10316D01*
X559552Y10330D01*
X559569Y10340D01*
X559636Y10419D01*
X559708Y10494D01*
X559716Y10512D01*
X559729Y10527D01*
X559768Y10623D01*
X559811Y10717D01*
X559813Y10737D01*
X559821Y10755D01*
X559839Y10922D01*
X559839Y899078D01*
X559836Y899098D01*
X559838Y899117D01*
X559816Y899219D01*
X559800Y899321D01*
X559790Y899338D01*
X559786Y899358D01*
X559733Y899447D01*
X559684Y899538D01*
X559670Y899552D01*
X559660Y899569D01*
X559581Y899636D01*
X559506Y899708D01*
X559488Y899716D01*
X559473Y899729D01*
X559377Y899768D01*
X559283Y899811D01*
X559263Y899813D01*
X559245Y899821D01*
X559078Y899839D01*
X10922Y899839D01*
X10902Y899836D01*
X10883Y899838D01*
X10781Y899816D01*
X10679Y899800D01*
X10662Y899790D01*
X10642Y899786D01*
X10553Y899733D01*
X10462Y899684D01*
X10448Y899670D01*
X10431Y899660D01*
X10364Y899581D01*
X10292Y899506D01*
X10284Y899488D01*
X10271Y899473D01*
X10232Y899377D01*
X10189Y899283D01*
X10187Y899263D01*
X10179Y899245D01*
X10161Y899078D01*
X10161Y10922D01*
X10164Y10902D01*
X10162Y10883D01*
X10184Y10781D01*
X10200Y10679D01*
X10210Y10662D01*
X10214Y10642D01*
X10267Y10553D01*
X10316Y10462D01*
X10330Y10448D01*
X10340Y10431D01*
X10419Y10364D01*
X10494Y10292D01*
X10512Y10284D01*
X10527Y10271D01*
X10623Y10232D01*
X10717Y10189D01*
X10737Y10187D01*
X10755Y10179D01*
X10922Y10161D01*
X559078Y10161D01*
X559098Y10164D01*
G37*
%LPC*%
G36*
X434008Y39175D02*
X434008Y39175D01*
X429772Y40930D01*
X420230Y50472D01*
X418475Y54708D01*
X418475Y67714D01*
X418472Y67734D01*
X418474Y67753D01*
X418452Y67855D01*
X418436Y67957D01*
X418426Y67974D01*
X418422Y67994D01*
X418369Y68083D01*
X418320Y68174D01*
X418306Y68188D01*
X418296Y68205D01*
X418217Y68272D01*
X418142Y68344D01*
X418124Y68352D01*
X418109Y68365D01*
X418013Y68404D01*
X417919Y68447D01*
X417899Y68449D01*
X417881Y68457D01*
X417714Y68475D01*
X87708Y68475D01*
X83472Y70230D01*
X39949Y113752D01*
X39875Y113805D01*
X39806Y113865D01*
X39776Y113877D01*
X39750Y113896D01*
X39663Y113923D01*
X39578Y113957D01*
X39537Y113961D01*
X39514Y113968D01*
X39482Y113967D01*
X39411Y113975D01*
X30705Y113975D01*
X23075Y121605D01*
X23075Y132395D01*
X28252Y137572D01*
X28305Y137646D01*
X28365Y137715D01*
X28377Y137746D01*
X28396Y137772D01*
X28423Y137859D01*
X28457Y137944D01*
X28461Y137985D01*
X28468Y138007D01*
X28467Y138039D01*
X28475Y138110D01*
X28475Y152292D01*
X30230Y156528D01*
X58252Y184551D01*
X58305Y184625D01*
X58365Y184694D01*
X58377Y184724D01*
X58396Y184750D01*
X58423Y184837D01*
X58457Y184922D01*
X58461Y184963D01*
X58468Y184986D01*
X58467Y185018D01*
X58475Y185089D01*
X58475Y194911D01*
X58461Y195001D01*
X58453Y195092D01*
X58441Y195122D01*
X58436Y195154D01*
X58393Y195234D01*
X58357Y195318D01*
X58331Y195350D01*
X58320Y195371D01*
X58297Y195393D01*
X58252Y195449D01*
X36349Y217352D01*
X36275Y217405D01*
X36206Y217465D01*
X36176Y217477D01*
X36150Y217496D01*
X36063Y217523D01*
X35978Y217557D01*
X35937Y217561D01*
X35914Y217568D01*
X35882Y217567D01*
X35811Y217575D01*
X30705Y217575D01*
X23075Y225205D01*
X23075Y235995D01*
X28252Y241172D01*
X28305Y241246D01*
X28365Y241315D01*
X28377Y241346D01*
X28396Y241372D01*
X28423Y241459D01*
X28457Y241544D01*
X28461Y241585D01*
X28468Y241607D01*
X28467Y241639D01*
X28475Y241710D01*
X28475Y252292D01*
X30230Y256528D01*
X58252Y284551D01*
X58305Y284625D01*
X58365Y284694D01*
X58377Y284724D01*
X58396Y284750D01*
X58423Y284837D01*
X58457Y284922D01*
X58461Y284963D01*
X58468Y284986D01*
X58467Y285018D01*
X58475Y285089D01*
X58475Y304911D01*
X58461Y305001D01*
X58453Y305092D01*
X58441Y305122D01*
X58436Y305154D01*
X58393Y305234D01*
X58357Y305318D01*
X58331Y305350D01*
X58320Y305371D01*
X58297Y305393D01*
X58252Y305449D01*
X43999Y319703D01*
X43983Y319714D01*
X43970Y319730D01*
X43883Y319786D01*
X43799Y319846D01*
X43780Y319852D01*
X43763Y319863D01*
X43663Y319888D01*
X43564Y319919D01*
X43544Y319918D01*
X43525Y319923D01*
X43422Y319915D01*
X43318Y319912D01*
X43299Y319905D01*
X43280Y319904D01*
X43185Y319863D01*
X43087Y319828D01*
X43072Y319815D01*
X43053Y319807D01*
X42922Y319703D01*
X42895Y319675D01*
X32105Y319675D01*
X24475Y327305D01*
X24475Y338095D01*
X32105Y345725D01*
X42895Y345725D01*
X44172Y344448D01*
X44246Y344395D01*
X44315Y344335D01*
X44346Y344323D01*
X44372Y344304D01*
X44459Y344277D01*
X44544Y344243D01*
X44585Y344239D01*
X44607Y344232D01*
X44639Y344233D01*
X44710Y344225D01*
X49592Y344225D01*
X53828Y342470D01*
X79770Y316528D01*
X81525Y312292D01*
X81525Y277708D01*
X79770Y273472D01*
X51748Y245449D01*
X51695Y245375D01*
X51635Y245306D01*
X51623Y245276D01*
X51604Y245250D01*
X51577Y245163D01*
X51543Y245078D01*
X51539Y245037D01*
X51532Y245014D01*
X51533Y244982D01*
X51525Y244911D01*
X51525Y235089D01*
X51539Y234999D01*
X51547Y234908D01*
X51559Y234878D01*
X51564Y234846D01*
X51607Y234766D01*
X51643Y234682D01*
X51669Y234650D01*
X51680Y234629D01*
X51703Y234607D01*
X51748Y234551D01*
X79770Y206528D01*
X81525Y202292D01*
X81525Y177708D01*
X79770Y173472D01*
X51748Y145449D01*
X51695Y145375D01*
X51635Y145306D01*
X51623Y145276D01*
X51604Y145250D01*
X51577Y145163D01*
X51569Y145142D01*
X51553Y145107D01*
X51552Y145100D01*
X51543Y145078D01*
X51539Y145037D01*
X51532Y145014D01*
X51533Y144982D01*
X51525Y144911D01*
X51525Y135089D01*
X51539Y134999D01*
X51547Y134908D01*
X51559Y134878D01*
X51564Y134846D01*
X51607Y134766D01*
X51643Y134682D01*
X51669Y134650D01*
X51680Y134629D01*
X51703Y134607D01*
X51748Y134551D01*
X94551Y91748D01*
X94625Y91695D01*
X94694Y91635D01*
X94724Y91623D01*
X94750Y91604D01*
X94837Y91577D01*
X94922Y91543D01*
X94963Y91539D01*
X94986Y91532D01*
X95018Y91533D01*
X95089Y91525D01*
X323414Y91525D01*
X323434Y91528D01*
X323453Y91526D01*
X323555Y91548D01*
X323657Y91564D01*
X323674Y91574D01*
X323694Y91578D01*
X323783Y91631D01*
X323874Y91680D01*
X323888Y91694D01*
X323905Y91704D01*
X323972Y91783D01*
X324044Y91858D01*
X324052Y91876D01*
X324065Y91891D01*
X324104Y91987D01*
X324147Y92081D01*
X324149Y92101D01*
X324157Y92119D01*
X324175Y92286D01*
X324175Y95894D01*
X324172Y95914D01*
X324174Y95933D01*
X324152Y96035D01*
X324136Y96137D01*
X324126Y96154D01*
X324122Y96174D01*
X324069Y96263D01*
X324020Y96354D01*
X324006Y96368D01*
X323996Y96385D01*
X323917Y96452D01*
X323842Y96524D01*
X323824Y96532D01*
X323809Y96545D01*
X323713Y96584D01*
X323619Y96627D01*
X323599Y96629D01*
X323581Y96637D01*
X323414Y96655D01*
X321261Y96655D01*
X317900Y98047D01*
X315327Y100620D01*
X313935Y103981D01*
X313935Y107619D01*
X315327Y110980D01*
X317900Y113553D01*
X321261Y114945D01*
X340139Y114945D01*
X343500Y113553D01*
X344605Y112448D01*
X344679Y112395D01*
X344748Y112335D01*
X344778Y112323D01*
X344805Y112304D01*
X344892Y112277D01*
X344976Y112243D01*
X345017Y112239D01*
X345040Y112232D01*
X345072Y112233D01*
X345143Y112225D01*
X385436Y112225D01*
X385551Y112244D01*
X385667Y112261D01*
X385672Y112263D01*
X385679Y112264D01*
X385781Y112319D01*
X385886Y112372D01*
X385890Y112377D01*
X385896Y112380D01*
X385976Y112464D01*
X386058Y112548D01*
X386062Y112554D01*
X386065Y112558D01*
X386073Y112575D01*
X386139Y112695D01*
X386840Y114387D01*
X389913Y117460D01*
X393927Y119123D01*
X398273Y119123D01*
X402287Y117460D01*
X405360Y114387D01*
X407023Y110373D01*
X407023Y106027D01*
X405360Y102013D01*
X402287Y98940D01*
X398273Y97277D01*
X393927Y97277D01*
X389913Y98940D01*
X386840Y102013D01*
X386139Y103705D01*
X386078Y103805D01*
X386018Y103905D01*
X386013Y103909D01*
X386009Y103914D01*
X385920Y103989D01*
X385831Y104065D01*
X385825Y104067D01*
X385820Y104071D01*
X385712Y104113D01*
X385602Y104157D01*
X385595Y104158D01*
X385590Y104159D01*
X385572Y104160D01*
X385436Y104175D01*
X348054Y104175D01*
X347939Y104156D01*
X347823Y104139D01*
X347817Y104137D01*
X347811Y104136D01*
X347708Y104081D01*
X347604Y104028D01*
X347599Y104023D01*
X347594Y104020D01*
X347514Y103936D01*
X347431Y103852D01*
X347428Y103846D01*
X347424Y103842D01*
X347417Y103825D01*
X347351Y103705D01*
X346073Y100620D01*
X343500Y98047D01*
X340139Y96655D01*
X337986Y96655D01*
X337966Y96652D01*
X337947Y96654D01*
X337845Y96632D01*
X337743Y96616D01*
X337726Y96606D01*
X337706Y96602D01*
X337617Y96549D01*
X337526Y96500D01*
X337512Y96486D01*
X337495Y96476D01*
X337428Y96397D01*
X337356Y96322D01*
X337348Y96304D01*
X337335Y96289D01*
X337296Y96193D01*
X337253Y96099D01*
X337251Y96079D01*
X337243Y96061D01*
X337225Y95894D01*
X337225Y92286D01*
X337228Y92266D01*
X337226Y92247D01*
X337248Y92145D01*
X337264Y92043D01*
X337274Y92026D01*
X337278Y92006D01*
X337331Y91917D01*
X337380Y91826D01*
X337394Y91812D01*
X337404Y91795D01*
X337483Y91728D01*
X337558Y91656D01*
X337576Y91648D01*
X337591Y91635D01*
X337687Y91596D01*
X337781Y91553D01*
X337801Y91551D01*
X337819Y91543D01*
X337986Y91525D01*
X432292Y91525D01*
X436528Y89770D01*
X439770Y86528D01*
X441525Y82292D01*
X441525Y62986D01*
X441528Y62966D01*
X441526Y62947D01*
X441548Y62845D01*
X441564Y62743D01*
X441574Y62726D01*
X441578Y62706D01*
X441631Y62617D01*
X441680Y62526D01*
X441694Y62512D01*
X441704Y62495D01*
X441783Y62428D01*
X441858Y62356D01*
X441876Y62348D01*
X441891Y62335D01*
X441987Y62296D01*
X442081Y62253D01*
X442101Y62251D01*
X442119Y62243D01*
X442286Y62225D01*
X480611Y62225D01*
X480701Y62239D01*
X480792Y62247D01*
X480822Y62259D01*
X480854Y62264D01*
X480934Y62307D01*
X481018Y62343D01*
X481050Y62369D01*
X481071Y62380D01*
X481093Y62403D01*
X481149Y62448D01*
X521772Y103070D01*
X526008Y104825D01*
X526690Y104825D01*
X526780Y104839D01*
X526871Y104847D01*
X526900Y104859D01*
X526932Y104864D01*
X527013Y104907D01*
X527097Y104943D01*
X527129Y104969D01*
X527150Y104980D01*
X527172Y105003D01*
X527228Y105048D01*
X528505Y106325D01*
X539295Y106325D01*
X546925Y98695D01*
X546925Y87905D01*
X539295Y80275D01*
X531889Y80275D01*
X531799Y80261D01*
X531708Y80253D01*
X531678Y80241D01*
X531646Y80236D01*
X531566Y80193D01*
X531482Y80157D01*
X531450Y80131D01*
X531429Y80120D01*
X531407Y80097D01*
X531351Y80052D01*
X492228Y40930D01*
X487992Y39175D01*
X434008Y39175D01*
G37*
%LPD*%
%LPC*%
G36*
X263851Y412225D02*
X263851Y412225D01*
X261725Y414351D01*
X261725Y425317D01*
X261706Y425432D01*
X261689Y425548D01*
X261687Y425554D01*
X261686Y425560D01*
X261631Y425663D01*
X261578Y425768D01*
X261573Y425772D01*
X261570Y425778D01*
X261486Y425857D01*
X261402Y425940D01*
X261396Y425943D01*
X261392Y425947D01*
X261375Y425955D01*
X261255Y426021D01*
X259464Y426763D01*
X256963Y429264D01*
X255609Y432532D01*
X255609Y436068D01*
X256963Y439336D01*
X259464Y441837D01*
X262732Y443191D01*
X266268Y443191D01*
X269536Y441837D01*
X272037Y439336D01*
X273391Y436068D01*
X273391Y432532D01*
X272037Y429264D01*
X269536Y426763D01*
X267745Y426021D01*
X267645Y425959D01*
X267545Y425899D01*
X267541Y425894D01*
X267536Y425891D01*
X267461Y425801D01*
X267385Y425712D01*
X267383Y425706D01*
X267379Y425702D01*
X267337Y425594D01*
X267293Y425484D01*
X267292Y425477D01*
X267291Y425472D01*
X267290Y425454D01*
X267275Y425317D01*
X267275Y418536D01*
X267278Y418516D01*
X267276Y418497D01*
X267298Y418395D01*
X267314Y418293D01*
X267324Y418276D01*
X267328Y418256D01*
X267381Y418167D01*
X267430Y418076D01*
X267444Y418062D01*
X267454Y418045D01*
X267533Y417978D01*
X267608Y417906D01*
X267626Y417898D01*
X267641Y417885D01*
X267737Y417846D01*
X267831Y417803D01*
X267851Y417801D01*
X267869Y417793D01*
X268036Y417775D01*
X301464Y417775D01*
X301484Y417778D01*
X301503Y417776D01*
X301605Y417798D01*
X301707Y417814D01*
X301724Y417824D01*
X301744Y417828D01*
X301833Y417881D01*
X301924Y417930D01*
X301938Y417944D01*
X301955Y417954D01*
X302022Y418033D01*
X302094Y418108D01*
X302102Y418126D01*
X302115Y418141D01*
X302154Y418237D01*
X302197Y418331D01*
X302199Y418351D01*
X302207Y418369D01*
X302225Y418536D01*
X302225Y448535D01*
X302211Y448625D01*
X302203Y448716D01*
X302191Y448746D01*
X302186Y448778D01*
X302143Y448859D01*
X302107Y448943D01*
X302081Y448975D01*
X302070Y448995D01*
X302047Y449018D01*
X302002Y449074D01*
X229074Y522002D01*
X229000Y522055D01*
X228930Y522115D01*
X228900Y522127D01*
X228874Y522146D01*
X228787Y522173D01*
X228702Y522207D01*
X228661Y522211D01*
X228639Y522218D01*
X228607Y522217D01*
X228535Y522225D01*
X123851Y522225D01*
X12225Y633851D01*
X12225Y761149D01*
X13851Y762775D01*
X23488Y762775D01*
X23603Y762794D01*
X23719Y762811D01*
X23724Y762813D01*
X23731Y762814D01*
X23833Y762869D01*
X23938Y762922D01*
X23943Y762927D01*
X23948Y762930D01*
X24028Y763014D01*
X24110Y763098D01*
X24114Y763104D01*
X24117Y763108D01*
X24125Y763125D01*
X24191Y763245D01*
X25581Y766600D01*
X28510Y769529D01*
X32338Y771115D01*
X54262Y771115D01*
X58090Y769529D01*
X61019Y766600D01*
X62119Y763945D01*
X62180Y763845D01*
X62240Y763745D01*
X62245Y763741D01*
X62248Y763736D01*
X62339Y763661D01*
X62427Y763585D01*
X62433Y763583D01*
X62438Y763579D01*
X62546Y763537D01*
X62655Y763493D01*
X62663Y763492D01*
X62668Y763491D01*
X62686Y763490D01*
X62822Y763475D01*
X408678Y763475D01*
X408793Y763494D01*
X408909Y763511D01*
X408914Y763513D01*
X408921Y763514D01*
X409023Y763569D01*
X409128Y763622D01*
X409132Y763627D01*
X409138Y763630D01*
X409218Y763714D01*
X409300Y763798D01*
X409304Y763804D01*
X409307Y763808D01*
X409315Y763825D01*
X409381Y763945D01*
X410481Y766600D01*
X413410Y769529D01*
X417238Y771115D01*
X439162Y771115D01*
X442990Y769529D01*
X445919Y766600D01*
X447505Y762772D01*
X447505Y758628D01*
X445919Y754800D01*
X442990Y751871D01*
X439162Y750285D01*
X417238Y750285D01*
X413410Y751871D01*
X410481Y754800D01*
X409381Y757455D01*
X409320Y757555D01*
X409260Y757655D01*
X409255Y757659D01*
X409252Y757664D01*
X409161Y757739D01*
X409073Y757815D01*
X409067Y757817D01*
X409062Y757821D01*
X408954Y757863D01*
X408845Y757907D01*
X408837Y757908D01*
X408832Y757909D01*
X408814Y757910D01*
X408678Y757925D01*
X62822Y757925D01*
X62707Y757906D01*
X62591Y757889D01*
X62586Y757887D01*
X62579Y757886D01*
X62477Y757831D01*
X62372Y757778D01*
X62368Y757773D01*
X62362Y757770D01*
X62282Y757686D01*
X62200Y757602D01*
X62196Y757596D01*
X62193Y757592D01*
X62185Y757575D01*
X62119Y757455D01*
X61019Y754800D01*
X58090Y751871D01*
X54262Y750285D01*
X32338Y750285D01*
X28510Y751871D01*
X25581Y754800D01*
X24771Y756755D01*
X24710Y756855D01*
X24650Y756955D01*
X24645Y756959D01*
X24641Y756964D01*
X24552Y757039D01*
X24463Y757115D01*
X24457Y757117D01*
X24452Y757121D01*
X24344Y757163D01*
X24235Y757207D01*
X24227Y757208D01*
X24222Y757209D01*
X24204Y757210D01*
X24068Y757225D01*
X18536Y757225D01*
X18516Y757222D01*
X18497Y757224D01*
X18395Y757202D01*
X18293Y757186D01*
X18276Y757176D01*
X18256Y757172D01*
X18167Y757119D01*
X18076Y757070D01*
X18062Y757056D01*
X18045Y757046D01*
X17978Y756967D01*
X17906Y756892D01*
X17898Y756874D01*
X17885Y756859D01*
X17846Y756763D01*
X17803Y756669D01*
X17801Y756649D01*
X17793Y756631D01*
X17775Y756464D01*
X17775Y636465D01*
X17789Y636375D01*
X17797Y636284D01*
X17809Y636254D01*
X17814Y636222D01*
X17857Y636141D01*
X17893Y636057D01*
X17919Y636025D01*
X17930Y636005D01*
X17953Y635982D01*
X17998Y635926D01*
X22696Y631228D01*
X22754Y631186D01*
X22806Y631137D01*
X22853Y631115D01*
X22895Y631085D01*
X22964Y631064D01*
X23029Y631033D01*
X23081Y631028D01*
X23131Y631012D01*
X23202Y631014D01*
X23273Y631006D01*
X23324Y631017D01*
X23376Y631019D01*
X23444Y631043D01*
X23514Y631059D01*
X23559Y631085D01*
X23607Y631103D01*
X23663Y631148D01*
X23725Y631185D01*
X23759Y631224D01*
X23799Y631257D01*
X23838Y631317D01*
X23885Y631372D01*
X23904Y631420D01*
X23932Y631464D01*
X23950Y631533D01*
X23977Y631600D01*
X23985Y631671D01*
X23993Y631702D01*
X23991Y631726D01*
X23995Y631767D01*
X23995Y635772D01*
X25581Y639600D01*
X28510Y642529D01*
X32338Y644115D01*
X54262Y644115D01*
X58090Y642529D01*
X61019Y639600D01*
X62605Y635772D01*
X62605Y631628D01*
X61019Y627800D01*
X58090Y624871D01*
X54262Y623285D01*
X32477Y623285D01*
X32406Y623274D01*
X32334Y623272D01*
X32285Y623254D01*
X32234Y623246D01*
X32171Y623212D01*
X32103Y623187D01*
X32063Y623155D01*
X32016Y623130D01*
X31967Y623078D01*
X31911Y623034D01*
X31883Y622990D01*
X31847Y622952D01*
X31817Y622887D01*
X31778Y622827D01*
X31765Y622776D01*
X31743Y622729D01*
X31736Y622658D01*
X31718Y622588D01*
X31722Y622536D01*
X31716Y622485D01*
X31732Y622414D01*
X31737Y622343D01*
X31758Y622295D01*
X31769Y622244D01*
X31805Y622183D01*
X31834Y622117D01*
X31878Y622061D01*
X31895Y622033D01*
X31913Y622018D01*
X31938Y621986D01*
X125926Y527998D01*
X126000Y527945D01*
X126070Y527885D01*
X126100Y527873D01*
X126126Y527854D01*
X126213Y527827D01*
X126298Y527793D01*
X126339Y527789D01*
X126361Y527782D01*
X126393Y527783D01*
X126465Y527775D01*
X207414Y527775D01*
X207485Y527786D01*
X207557Y527788D01*
X207605Y527806D01*
X207657Y527814D01*
X207720Y527848D01*
X207788Y527873D01*
X207828Y527905D01*
X207874Y527930D01*
X207924Y527982D01*
X207980Y528026D01*
X208008Y528070D01*
X208044Y528108D01*
X208074Y528173D01*
X208113Y528233D01*
X208125Y528284D01*
X208147Y528331D01*
X208155Y528402D01*
X208173Y528472D01*
X208169Y528524D01*
X208174Y528575D01*
X208159Y528646D01*
X208153Y528717D01*
X208133Y528765D01*
X208122Y528816D01*
X208085Y528877D01*
X208057Y528943D01*
X208012Y528999D01*
X207996Y529027D01*
X207978Y529042D01*
X207952Y529074D01*
X206163Y530864D01*
X204809Y534132D01*
X204809Y537668D01*
X206163Y540936D01*
X208664Y543437D01*
X211932Y544791D01*
X215468Y544791D01*
X218736Y543437D01*
X221237Y540936D01*
X222591Y537668D01*
X222591Y534132D01*
X221237Y530864D01*
X219448Y529074D01*
X219406Y529016D01*
X219356Y528964D01*
X219334Y528917D01*
X219304Y528875D01*
X219283Y528806D01*
X219253Y528741D01*
X219247Y528689D01*
X219232Y528639D01*
X219234Y528568D01*
X219226Y528497D01*
X219237Y528446D01*
X219238Y528394D01*
X219263Y528326D01*
X219278Y528256D01*
X219305Y528211D01*
X219323Y528163D01*
X219367Y528107D01*
X219404Y528045D01*
X219444Y528011D01*
X219476Y527971D01*
X219537Y527932D01*
X219591Y527885D01*
X219639Y527866D01*
X219683Y527838D01*
X219753Y527820D01*
X219819Y527793D01*
X219891Y527785D01*
X219922Y527777D01*
X219945Y527779D01*
X219986Y527775D01*
X231149Y527775D01*
X232998Y525927D01*
X232998Y525926D01*
X305926Y452998D01*
X307775Y451149D01*
X307775Y441186D01*
X307786Y441115D01*
X307788Y441043D01*
X307806Y440995D01*
X307814Y440943D01*
X307848Y440880D01*
X307873Y440812D01*
X307905Y440772D01*
X307930Y440726D01*
X307982Y440676D01*
X308026Y440620D01*
X308070Y440592D01*
X308108Y440556D01*
X308173Y440526D01*
X308233Y440487D01*
X308284Y440475D01*
X308331Y440453D01*
X308402Y440445D01*
X308472Y440427D01*
X308524Y440431D01*
X308575Y440426D01*
X308646Y440441D01*
X308717Y440447D01*
X308765Y440467D01*
X308816Y440478D01*
X308877Y440515D01*
X308943Y440543D01*
X308999Y440588D01*
X309027Y440604D01*
X309042Y440622D01*
X309074Y440648D01*
X310264Y441837D01*
X313532Y443191D01*
X317068Y443191D01*
X320336Y441837D01*
X322837Y439336D01*
X324191Y436068D01*
X324191Y432532D01*
X322837Y429264D01*
X320336Y426763D01*
X317068Y425409D01*
X313532Y425409D01*
X310264Y426763D01*
X309074Y427952D01*
X309016Y427994D01*
X308964Y428044D01*
X308917Y428066D01*
X308875Y428096D01*
X308806Y428117D01*
X308741Y428147D01*
X308689Y428153D01*
X308639Y428168D01*
X308568Y428166D01*
X308497Y428174D01*
X308446Y428163D01*
X308394Y428162D01*
X308326Y428137D01*
X308256Y428122D01*
X308211Y428095D01*
X308163Y428077D01*
X308107Y428033D01*
X308045Y427996D01*
X308011Y427956D01*
X307971Y427924D01*
X307932Y427863D01*
X307885Y427809D01*
X307866Y427761D01*
X307838Y427717D01*
X307820Y427647D01*
X307793Y427581D01*
X307785Y427509D01*
X307777Y427478D01*
X307779Y427455D01*
X307775Y427414D01*
X307775Y423536D01*
X307778Y423516D01*
X307776Y423497D01*
X307798Y423395D01*
X307814Y423293D01*
X307824Y423276D01*
X307828Y423256D01*
X307881Y423167D01*
X307930Y423076D01*
X307944Y423062D01*
X307954Y423045D01*
X308033Y422978D01*
X308108Y422906D01*
X308126Y422898D01*
X308141Y422885D01*
X308237Y422846D01*
X308331Y422803D01*
X308351Y422801D01*
X308369Y422793D01*
X308536Y422775D01*
X350335Y422775D01*
X350425Y422789D01*
X350516Y422797D01*
X350546Y422809D01*
X350578Y422814D01*
X350659Y422857D01*
X350743Y422893D01*
X350775Y422919D01*
X350795Y422930D01*
X350818Y422953D01*
X350874Y422998D01*
X357786Y429910D01*
X357855Y430005D01*
X357924Y430099D01*
X357926Y430105D01*
X357930Y430110D01*
X357964Y430222D01*
X358000Y430333D01*
X358000Y430339D01*
X358002Y430345D01*
X357999Y430462D01*
X357998Y430579D01*
X357996Y430586D01*
X357996Y430591D01*
X357989Y430609D01*
X357951Y430740D01*
X357209Y432532D01*
X357209Y436068D01*
X358563Y439336D01*
X361064Y441837D01*
X364332Y443191D01*
X367868Y443191D01*
X371136Y441837D01*
X373426Y439548D01*
X373484Y439506D01*
X373536Y439456D01*
X373583Y439434D01*
X373625Y439404D01*
X373694Y439383D01*
X373759Y439353D01*
X373811Y439347D01*
X373861Y439332D01*
X373932Y439334D01*
X374003Y439326D01*
X374054Y439337D01*
X374106Y439338D01*
X374174Y439363D01*
X374244Y439378D01*
X374289Y439405D01*
X374337Y439423D01*
X374393Y439467D01*
X374455Y439504D01*
X374489Y439544D01*
X374529Y439576D01*
X374568Y439637D01*
X374615Y439691D01*
X374634Y439739D01*
X374662Y439783D01*
X374680Y439853D01*
X374707Y439919D01*
X374715Y439991D01*
X374723Y440022D01*
X374721Y440045D01*
X374725Y440086D01*
X374725Y580914D01*
X374714Y580985D01*
X374712Y581057D01*
X374694Y581105D01*
X374686Y581157D01*
X374652Y581220D01*
X374627Y581288D01*
X374595Y581328D01*
X374570Y581374D01*
X374518Y581424D01*
X374474Y581480D01*
X374430Y581508D01*
X374392Y581544D01*
X374327Y581574D01*
X374267Y581613D01*
X374216Y581625D01*
X374169Y581647D01*
X374098Y581655D01*
X374028Y581673D01*
X373976Y581669D01*
X373925Y581674D01*
X373854Y581659D01*
X373783Y581653D01*
X373735Y581633D01*
X373684Y581622D01*
X373623Y581585D01*
X373557Y581557D01*
X373501Y581512D01*
X373473Y581496D01*
X373458Y581478D01*
X373426Y581452D01*
X371136Y579163D01*
X367868Y577809D01*
X364332Y577809D01*
X361064Y579163D01*
X358563Y581664D01*
X357209Y584932D01*
X357209Y588468D01*
X358563Y591736D01*
X361064Y594237D01*
X364332Y595591D01*
X367868Y595591D01*
X371136Y594237D01*
X373426Y591948D01*
X373484Y591906D01*
X373536Y591856D01*
X373583Y591834D01*
X373625Y591804D01*
X373694Y591783D01*
X373759Y591753D01*
X373811Y591747D01*
X373861Y591732D01*
X373932Y591734D01*
X374003Y591726D01*
X374054Y591737D01*
X374106Y591738D01*
X374174Y591763D01*
X374244Y591778D01*
X374289Y591805D01*
X374337Y591823D01*
X374393Y591867D01*
X374455Y591904D01*
X374489Y591944D01*
X374529Y591976D01*
X374568Y592037D01*
X374615Y592091D01*
X374634Y592139D01*
X374662Y592183D01*
X374680Y592253D01*
X374707Y592319D01*
X374715Y592391D01*
X374723Y592422D01*
X374721Y592445D01*
X374725Y592486D01*
X374725Y609549D01*
X376574Y611398D01*
X414045Y648869D01*
X414072Y648906D01*
X414105Y648937D01*
X414143Y649005D01*
X414188Y649069D01*
X414202Y649112D01*
X414224Y649153D01*
X414238Y649229D01*
X414261Y649304D01*
X414259Y649350D01*
X414268Y649395D01*
X414256Y649472D01*
X414254Y649550D01*
X414239Y649593D01*
X414232Y649638D01*
X414197Y649707D01*
X414170Y649781D01*
X414141Y649816D01*
X414120Y649857D01*
X414065Y649912D01*
X414016Y649973D01*
X413977Y649997D01*
X413945Y650030D01*
X413825Y650095D01*
X413809Y650106D01*
X413804Y650107D01*
X413798Y650110D01*
X413410Y650271D01*
X410481Y653200D01*
X408895Y657028D01*
X408895Y661172D01*
X410481Y665000D01*
X413410Y667929D01*
X417238Y669515D01*
X439162Y669515D01*
X442990Y667929D01*
X445919Y665000D01*
X447505Y661172D01*
X447505Y657028D01*
X445919Y653200D01*
X442990Y650271D01*
X439162Y648685D01*
X422025Y648685D01*
X421935Y648671D01*
X421844Y648663D01*
X421814Y648651D01*
X421782Y648646D01*
X421701Y648603D01*
X421617Y648567D01*
X421585Y648541D01*
X421565Y648530D01*
X421542Y648507D01*
X421486Y648462D01*
X418438Y645414D01*
X418396Y645356D01*
X418347Y645304D01*
X418325Y645257D01*
X418295Y645215D01*
X418274Y645146D01*
X418243Y645081D01*
X418238Y645029D01*
X418222Y644979D01*
X418224Y644908D01*
X418216Y644837D01*
X418227Y644786D01*
X418229Y644734D01*
X418253Y644666D01*
X418269Y644596D01*
X418295Y644551D01*
X418313Y644503D01*
X418358Y644447D01*
X418395Y644385D01*
X418434Y644351D01*
X418467Y644311D01*
X418527Y644272D01*
X418582Y644225D01*
X418630Y644206D01*
X418674Y644178D01*
X418743Y644160D01*
X418810Y644133D01*
X418881Y644125D01*
X418912Y644117D01*
X418936Y644119D01*
X418977Y644115D01*
X439162Y644115D01*
X442990Y642529D01*
X445919Y639600D01*
X447505Y635772D01*
X447505Y631628D01*
X445919Y627800D01*
X442990Y624871D01*
X439162Y623285D01*
X417238Y623285D01*
X413410Y624871D01*
X410481Y627800D01*
X408895Y631628D01*
X408895Y634033D01*
X408884Y634104D01*
X408882Y634176D01*
X408864Y634225D01*
X408856Y634276D01*
X408822Y634339D01*
X408797Y634407D01*
X408765Y634447D01*
X408740Y634494D01*
X408688Y634543D01*
X408644Y634599D01*
X408600Y634627D01*
X408562Y634663D01*
X408497Y634693D01*
X408437Y634732D01*
X408386Y634745D01*
X408339Y634767D01*
X408268Y634774D01*
X408198Y634792D01*
X408146Y634788D01*
X408095Y634794D01*
X408024Y634778D01*
X407953Y634773D01*
X407905Y634752D01*
X407854Y634741D01*
X407793Y634705D01*
X407727Y634676D01*
X407671Y634632D01*
X407643Y634615D01*
X407628Y634597D01*
X407596Y634572D01*
X380498Y607474D01*
X380445Y607400D01*
X380385Y607330D01*
X380373Y607300D01*
X380354Y607274D01*
X380327Y607187D01*
X380293Y607102D01*
X380289Y607061D01*
X380282Y607039D01*
X380283Y607007D01*
X380275Y606935D01*
X380275Y413851D01*
X378649Y412225D01*
X263851Y412225D01*
G37*
%LPD*%
%LPC*%
G36*
X338932Y425409D02*
X338932Y425409D01*
X335664Y426763D01*
X333163Y429264D01*
X331809Y432532D01*
X331809Y436068D01*
X333163Y439336D01*
X335664Y441837D01*
X337455Y442579D01*
X337555Y442641D01*
X337655Y442701D01*
X337659Y442706D01*
X337664Y442709D01*
X337739Y442799D01*
X337815Y442888D01*
X337817Y442894D01*
X337821Y442898D01*
X337863Y443006D01*
X337907Y443116D01*
X337908Y443123D01*
X337909Y443128D01*
X337910Y443146D01*
X337925Y443283D01*
X337925Y450335D01*
X337911Y450425D01*
X337903Y450516D01*
X337891Y450546D01*
X337886Y450578D01*
X337843Y450659D01*
X337807Y450743D01*
X337781Y450775D01*
X337770Y450795D01*
X337747Y450818D01*
X337702Y450874D01*
X241574Y547002D01*
X241500Y547055D01*
X241430Y547115D01*
X241400Y547127D01*
X241374Y547146D01*
X241287Y547173D01*
X241202Y547207D01*
X241161Y547211D01*
X241139Y547218D01*
X241107Y547217D01*
X241035Y547225D01*
X193851Y547225D01*
X189725Y551351D01*
X189725Y584635D01*
X189711Y584725D01*
X189703Y584816D01*
X189691Y584846D01*
X189686Y584878D01*
X189643Y584959D01*
X189607Y585043D01*
X189581Y585075D01*
X189570Y585095D01*
X189547Y585118D01*
X189502Y585174D01*
X63904Y710772D01*
X63846Y710813D01*
X63794Y710863D01*
X63747Y710885D01*
X63705Y710915D01*
X63636Y710936D01*
X63571Y710967D01*
X63519Y710972D01*
X63469Y710988D01*
X63398Y710986D01*
X63327Y710994D01*
X63276Y710983D01*
X63224Y710981D01*
X63156Y710957D01*
X63086Y710941D01*
X63042Y710915D01*
X62993Y710897D01*
X62937Y710852D01*
X62875Y710815D01*
X62841Y710776D01*
X62801Y710743D01*
X62762Y710683D01*
X62715Y710628D01*
X62696Y710580D01*
X62668Y710536D01*
X62650Y710467D01*
X62623Y710400D01*
X62615Y710329D01*
X62607Y710298D01*
X62609Y710274D01*
X62605Y710233D01*
X62605Y707828D01*
X61019Y704000D01*
X58090Y701071D01*
X54262Y699485D01*
X32338Y699485D01*
X28510Y701071D01*
X25581Y704000D01*
X23995Y707828D01*
X23995Y711972D01*
X25581Y715800D01*
X28510Y718729D01*
X32338Y720315D01*
X52523Y720315D01*
X52594Y720326D01*
X52666Y720328D01*
X52715Y720346D01*
X52766Y720354D01*
X52829Y720388D01*
X52897Y720413D01*
X52937Y720445D01*
X52984Y720470D01*
X53033Y720522D01*
X53089Y720566D01*
X53117Y720610D01*
X53153Y720648D01*
X53183Y720713D01*
X53222Y720773D01*
X53235Y720824D01*
X53257Y720871D01*
X53264Y720942D01*
X53282Y721012D01*
X53278Y721064D01*
X53284Y721115D01*
X53268Y721186D01*
X53263Y721257D01*
X53242Y721305D01*
X53231Y721356D01*
X53195Y721417D01*
X53166Y721483D01*
X53122Y721539D01*
X53105Y721567D01*
X53087Y721582D01*
X53062Y721614D01*
X50014Y724662D01*
X49940Y724715D01*
X49870Y724775D01*
X49840Y724787D01*
X49814Y724806D01*
X49727Y724833D01*
X49642Y724867D01*
X49601Y724871D01*
X49579Y724878D01*
X49547Y724877D01*
X49475Y724885D01*
X32338Y724885D01*
X28510Y726471D01*
X25581Y729400D01*
X23995Y733228D01*
X23995Y737372D01*
X25581Y741200D01*
X28510Y744129D01*
X32338Y745715D01*
X54262Y745715D01*
X58090Y744129D01*
X61019Y741200D01*
X62119Y738545D01*
X62180Y738445D01*
X62240Y738345D01*
X62245Y738341D01*
X62248Y738336D01*
X62339Y738261D01*
X62427Y738185D01*
X62433Y738183D01*
X62438Y738179D01*
X62546Y738137D01*
X62655Y738093D01*
X62663Y738092D01*
X62668Y738091D01*
X62686Y738090D01*
X62822Y738075D01*
X165849Y738075D01*
X190926Y712998D01*
X191000Y712945D01*
X191070Y712885D01*
X191100Y712873D01*
X191126Y712854D01*
X191213Y712827D01*
X191298Y712793D01*
X191339Y712789D01*
X191361Y712782D01*
X191393Y712783D01*
X191465Y712775D01*
X378535Y712775D01*
X378625Y712789D01*
X378716Y712797D01*
X378746Y712809D01*
X378778Y712814D01*
X378859Y712857D01*
X378943Y712893D01*
X378975Y712919D01*
X378995Y712930D01*
X379013Y712948D01*
X379015Y712949D01*
X379022Y712956D01*
X379074Y712998D01*
X404151Y738075D01*
X408678Y738075D01*
X408793Y738094D01*
X408909Y738111D01*
X408914Y738113D01*
X408921Y738114D01*
X409023Y738169D01*
X409128Y738222D01*
X409132Y738227D01*
X409138Y738230D01*
X409218Y738314D01*
X409300Y738398D01*
X409304Y738404D01*
X409307Y738408D01*
X409315Y738425D01*
X409381Y738545D01*
X410481Y741200D01*
X413410Y744129D01*
X417238Y745715D01*
X439162Y745715D01*
X442990Y744129D01*
X445919Y741200D01*
X447505Y737372D01*
X447505Y733228D01*
X445919Y729400D01*
X442990Y726471D01*
X439162Y724885D01*
X417238Y724885D01*
X413410Y726471D01*
X410481Y729400D01*
X409381Y732055D01*
X409320Y732155D01*
X409260Y732255D01*
X409255Y732259D01*
X409252Y732264D01*
X409161Y732339D01*
X409073Y732415D01*
X409067Y732417D01*
X409062Y732421D01*
X408954Y732463D01*
X408845Y732507D01*
X408837Y732508D01*
X408832Y732509D01*
X408814Y732510D01*
X408678Y732525D01*
X406765Y732525D01*
X406675Y732511D01*
X406584Y732503D01*
X406554Y732491D01*
X406522Y732486D01*
X406441Y732443D01*
X406357Y732407D01*
X406325Y732381D01*
X406305Y732370D01*
X406282Y732347D01*
X406226Y732302D01*
X381149Y707225D01*
X188851Y707225D01*
X163774Y732302D01*
X163700Y732355D01*
X163630Y732415D01*
X163600Y732427D01*
X163574Y732446D01*
X163487Y732473D01*
X163402Y732507D01*
X163361Y732511D01*
X163339Y732518D01*
X163307Y732517D01*
X163235Y732525D01*
X62822Y732525D01*
X62707Y732506D01*
X62591Y732489D01*
X62586Y732487D01*
X62579Y732486D01*
X62477Y732431D01*
X62372Y732378D01*
X62368Y732373D01*
X62362Y732370D01*
X62282Y732286D01*
X62200Y732202D01*
X62196Y732196D01*
X62193Y732192D01*
X62185Y732175D01*
X62119Y732055D01*
X61019Y729400D01*
X58090Y726471D01*
X57702Y726310D01*
X57663Y726286D01*
X57620Y726270D01*
X57559Y726222D01*
X57493Y726181D01*
X57464Y726145D01*
X57428Y726117D01*
X57386Y726051D01*
X57336Y725991D01*
X57320Y725949D01*
X57295Y725910D01*
X57276Y725834D01*
X57248Y725762D01*
X57246Y725716D01*
X57235Y725671D01*
X57241Y725594D01*
X57238Y725516D01*
X57251Y725472D01*
X57254Y725426D01*
X57285Y725355D01*
X57306Y725280D01*
X57332Y725242D01*
X57350Y725200D01*
X57436Y725093D01*
X57447Y725078D01*
X57451Y725075D01*
X57455Y725069D01*
X193426Y589098D01*
X195275Y587249D01*
X195275Y553965D01*
X195289Y553875D01*
X195297Y553784D01*
X195309Y553754D01*
X195314Y553722D01*
X195357Y553641D01*
X195393Y553557D01*
X195419Y553525D01*
X195430Y553505D01*
X195453Y553482D01*
X195498Y553426D01*
X195926Y552998D01*
X196000Y552945D01*
X196070Y552885D01*
X196100Y552873D01*
X196126Y552854D01*
X196213Y552827D01*
X196298Y552793D01*
X196339Y552789D01*
X196361Y552782D01*
X196393Y552783D01*
X196465Y552775D01*
X207814Y552775D01*
X207885Y552786D01*
X207957Y552788D01*
X208005Y552806D01*
X208057Y552814D01*
X208120Y552848D01*
X208188Y552873D01*
X208228Y552905D01*
X208274Y552930D01*
X208324Y552982D01*
X208380Y553026D01*
X208408Y553070D01*
X208444Y553108D01*
X208474Y553173D01*
X208513Y553233D01*
X208525Y553284D01*
X208547Y553331D01*
X208555Y553402D01*
X208573Y553472D01*
X208569Y553524D01*
X208574Y553575D01*
X208559Y553646D01*
X208553Y553717D01*
X208533Y553765D01*
X208522Y553816D01*
X208485Y553877D01*
X208457Y553943D01*
X208412Y553999D01*
X208396Y554027D01*
X208378Y554042D01*
X208352Y554074D01*
X206163Y556264D01*
X204809Y559532D01*
X204809Y563068D01*
X206163Y566336D01*
X208664Y568837D01*
X211932Y570191D01*
X215468Y570191D01*
X218736Y568837D01*
X221237Y566336D01*
X222591Y563068D01*
X222591Y559532D01*
X221237Y556264D01*
X219048Y554074D01*
X219006Y554016D01*
X218956Y553964D01*
X218934Y553917D01*
X218904Y553875D01*
X218883Y553806D01*
X218853Y553741D01*
X218847Y553689D01*
X218832Y553639D01*
X218834Y553568D01*
X218826Y553497D01*
X218837Y553446D01*
X218838Y553394D01*
X218863Y553326D01*
X218878Y553256D01*
X218905Y553211D01*
X218923Y553163D01*
X218967Y553107D01*
X219004Y553045D01*
X219044Y553011D01*
X219076Y552971D01*
X219137Y552932D01*
X219191Y552885D01*
X219239Y552866D01*
X219283Y552838D01*
X219353Y552820D01*
X219419Y552793D01*
X219491Y552785D01*
X219522Y552777D01*
X219545Y552779D01*
X219586Y552775D01*
X243649Y552775D01*
X343475Y452949D01*
X343475Y443283D01*
X343476Y443275D01*
X343476Y443273D01*
X343478Y443261D01*
X343494Y443168D01*
X343511Y443052D01*
X343513Y443046D01*
X343514Y443040D01*
X343569Y442937D01*
X343622Y442832D01*
X343627Y442828D01*
X343630Y442822D01*
X343714Y442743D01*
X343798Y442660D01*
X343804Y442657D01*
X343808Y442653D01*
X343825Y442645D01*
X343945Y442579D01*
X345736Y441837D01*
X348237Y439336D01*
X349591Y436068D01*
X349591Y432532D01*
X348237Y429264D01*
X345736Y426763D01*
X342468Y425409D01*
X338932Y425409D01*
G37*
%LPD*%
%LPC*%
G36*
X108205Y200975D02*
X108205Y200975D01*
X104888Y202349D01*
X102349Y204888D01*
X100975Y208205D01*
X100975Y211795D01*
X102349Y215112D01*
X104888Y217651D01*
X108205Y219025D01*
X111795Y219025D01*
X115112Y217651D01*
X116015Y216748D01*
X116089Y216695D01*
X116159Y216635D01*
X116189Y216623D01*
X116215Y216604D01*
X116302Y216577D01*
X116387Y216543D01*
X116428Y216539D01*
X116450Y216532D01*
X116482Y216533D01*
X116554Y216525D01*
X380882Y216525D01*
X380972Y216539D01*
X381063Y216547D01*
X381093Y216559D01*
X381125Y216564D01*
X381205Y216607D01*
X381289Y216643D01*
X381321Y216669D01*
X381342Y216680D01*
X381364Y216703D01*
X381420Y216748D01*
X452054Y287382D01*
X452107Y287456D01*
X452167Y287525D01*
X452179Y287555D01*
X452198Y287581D01*
X452225Y287668D01*
X452259Y287753D01*
X452263Y287794D01*
X452270Y287816D01*
X452269Y287849D01*
X452277Y287920D01*
X452277Y291473D01*
X453940Y295487D01*
X457013Y298560D01*
X461027Y300223D01*
X465373Y300223D01*
X469387Y298560D01*
X472460Y295487D01*
X474123Y291473D01*
X474123Y287127D01*
X472460Y283113D01*
X469387Y280040D01*
X465373Y278377D01*
X461820Y278377D01*
X461730Y278363D01*
X461639Y278355D01*
X461609Y278343D01*
X461577Y278338D01*
X461497Y278295D01*
X461413Y278259D01*
X461381Y278233D01*
X461360Y278222D01*
X461338Y278199D01*
X461282Y278154D01*
X387596Y204469D01*
X385198Y203475D01*
X116554Y203475D01*
X116463Y203461D01*
X116373Y203453D01*
X116343Y203441D01*
X116311Y203436D01*
X116230Y203393D01*
X116146Y203357D01*
X116114Y203331D01*
X116093Y203320D01*
X116071Y203297D01*
X116015Y203252D01*
X115112Y202349D01*
X111795Y200975D01*
X108205Y200975D01*
G37*
%LPD*%
%LPC*%
G36*
X389732Y577809D02*
X389732Y577809D01*
X386464Y579163D01*
X383963Y581664D01*
X382609Y584932D01*
X382609Y588468D01*
X383963Y591736D01*
X386464Y594237D01*
X389732Y595591D01*
X393268Y595591D01*
X395060Y594849D01*
X395125Y594833D01*
X395160Y594819D01*
X395204Y594814D01*
X395287Y594793D01*
X395293Y594794D01*
X395299Y594792D01*
X395416Y594803D01*
X395532Y594813D01*
X395538Y594815D01*
X395544Y594816D01*
X395598Y594840D01*
X395604Y594840D01*
X395624Y594851D01*
X395652Y594863D01*
X395759Y594909D01*
X395764Y594914D01*
X395769Y594916D01*
X395783Y594928D01*
X395808Y594949D01*
X395821Y594956D01*
X395836Y594971D01*
X395890Y595014D01*
X411802Y610926D01*
X413651Y612775D01*
X458535Y612775D01*
X458625Y612789D01*
X458716Y612797D01*
X458746Y612809D01*
X458778Y612814D01*
X458859Y612857D01*
X458943Y612893D01*
X458975Y612919D01*
X458995Y612930D01*
X459018Y612953D01*
X459074Y612998D01*
X477002Y630926D01*
X477055Y631000D01*
X477115Y631070D01*
X477127Y631100D01*
X477146Y631126D01*
X477173Y631213D01*
X477207Y631298D01*
X477211Y631339D01*
X477218Y631361D01*
X477217Y631393D01*
X477225Y631465D01*
X477225Y826464D01*
X477222Y826484D01*
X477224Y826503D01*
X477202Y826605D01*
X477186Y826707D01*
X477176Y826724D01*
X477172Y826744D01*
X477119Y826833D01*
X477070Y826924D01*
X477056Y826938D01*
X477046Y826955D01*
X476967Y827022D01*
X476892Y827094D01*
X476874Y827102D01*
X476859Y827115D01*
X476763Y827154D01*
X476669Y827197D01*
X476649Y827199D01*
X476631Y827207D01*
X476464Y827225D01*
X411465Y827225D01*
X411375Y827211D01*
X411284Y827203D01*
X411254Y827191D01*
X411222Y827186D01*
X411141Y827143D01*
X411057Y827107D01*
X411025Y827081D01*
X411005Y827070D01*
X410982Y827047D01*
X410926Y827002D01*
X391149Y807225D01*
X134151Y807225D01*
X132302Y809074D01*
X103845Y837531D01*
X103751Y837598D01*
X103656Y837669D01*
X103650Y837671D01*
X103645Y837675D01*
X103534Y837709D01*
X103422Y837745D01*
X103416Y837745D01*
X103410Y837747D01*
X103293Y837744D01*
X103176Y837743D01*
X103169Y837741D01*
X103164Y837741D01*
X103147Y837734D01*
X103015Y837696D01*
X100073Y836477D01*
X95727Y836477D01*
X91713Y838140D01*
X88640Y841213D01*
X86977Y845227D01*
X86977Y849573D01*
X88640Y853587D01*
X91713Y856660D01*
X95727Y858323D01*
X100073Y858323D01*
X104087Y856660D01*
X107160Y853587D01*
X108823Y849573D01*
X108823Y845227D01*
X107604Y842285D01*
X107577Y842171D01*
X107549Y842058D01*
X107549Y842051D01*
X107548Y842045D01*
X107559Y841927D01*
X107568Y841812D01*
X107570Y841807D01*
X107571Y841800D01*
X107619Y841693D01*
X107664Y841586D01*
X107669Y841580D01*
X107671Y841576D01*
X107683Y841562D01*
X107769Y841455D01*
X136226Y812998D01*
X136300Y812945D01*
X136370Y812885D01*
X136400Y812873D01*
X136426Y812854D01*
X136513Y812827D01*
X136598Y812793D01*
X136639Y812789D01*
X136661Y812782D01*
X136693Y812783D01*
X136765Y812775D01*
X388535Y812775D01*
X388625Y812789D01*
X388716Y812797D01*
X388746Y812809D01*
X388778Y812814D01*
X388859Y812857D01*
X388943Y812893D01*
X388975Y812919D01*
X388995Y812930D01*
X389018Y812953D01*
X389074Y812998D01*
X408851Y832775D01*
X481149Y832775D01*
X482775Y831149D01*
X482775Y628851D01*
X461149Y607225D01*
X416265Y607225D01*
X416175Y607211D01*
X416084Y607203D01*
X416054Y607191D01*
X416022Y607186D01*
X415941Y607143D01*
X415857Y607107D01*
X415825Y607081D01*
X415805Y607070D01*
X415782Y607047D01*
X415726Y607002D01*
X399814Y591090D01*
X399746Y590995D01*
X399676Y590901D01*
X399674Y590895D01*
X399670Y590890D01*
X399636Y590779D01*
X399600Y590667D01*
X399600Y590661D01*
X399598Y590655D01*
X399601Y590538D01*
X399602Y590421D01*
X399604Y590414D01*
X399604Y590409D01*
X399611Y590391D01*
X399649Y590260D01*
X400391Y588468D01*
X400391Y584932D01*
X399037Y581664D01*
X396536Y579163D01*
X393268Y577809D01*
X389732Y577809D01*
G37*
%LPD*%
%LPC*%
G36*
X131351Y394725D02*
X131351Y394725D01*
X114492Y411584D01*
X114398Y411651D01*
X114304Y411722D01*
X114297Y411724D01*
X114292Y411727D01*
X114182Y411761D01*
X114070Y411798D01*
X114063Y411798D01*
X114057Y411800D01*
X113941Y411797D01*
X113824Y411796D01*
X113816Y411793D01*
X113811Y411793D01*
X113794Y411787D01*
X113663Y411749D01*
X111795Y410975D01*
X108205Y410975D01*
X104888Y412349D01*
X102349Y414888D01*
X100975Y418205D01*
X100975Y421795D01*
X102349Y425112D01*
X104888Y427651D01*
X108205Y429025D01*
X111795Y429025D01*
X115112Y427651D01*
X117651Y425112D01*
X119025Y421795D01*
X119025Y418205D01*
X118251Y416337D01*
X118225Y416224D01*
X118196Y416110D01*
X118196Y416104D01*
X118195Y416098D01*
X118206Y415981D01*
X118215Y415865D01*
X118218Y415859D01*
X118218Y415853D01*
X118266Y415746D01*
X118311Y415639D01*
X118316Y415633D01*
X118318Y415628D01*
X118331Y415615D01*
X118416Y415508D01*
X133426Y400498D01*
X133500Y400445D01*
X133570Y400385D01*
X133600Y400373D01*
X133626Y400354D01*
X133713Y400327D01*
X133798Y400293D01*
X133839Y400289D01*
X133861Y400282D01*
X133893Y400283D01*
X133965Y400275D01*
X426464Y400275D01*
X426484Y400278D01*
X426503Y400276D01*
X426605Y400298D01*
X426707Y400314D01*
X426724Y400324D01*
X426744Y400328D01*
X426833Y400381D01*
X426924Y400430D01*
X426938Y400444D01*
X426955Y400454D01*
X427022Y400533D01*
X427094Y400608D01*
X427102Y400626D01*
X427115Y400641D01*
X427154Y400737D01*
X427197Y400831D01*
X427199Y400851D01*
X427207Y400869D01*
X427225Y401036D01*
X427225Y432168D01*
X427210Y432264D01*
X427200Y432361D01*
X427190Y432385D01*
X427186Y432411D01*
X427140Y432496D01*
X427100Y432586D01*
X427083Y432605D01*
X427070Y432628D01*
X427000Y432695D01*
X426934Y432767D01*
X426911Y432779D01*
X426892Y432797D01*
X426804Y432838D01*
X426718Y432885D01*
X426693Y432890D01*
X426669Y432901D01*
X426572Y432912D01*
X426476Y432929D01*
X426450Y432925D01*
X426425Y432928D01*
X426329Y432907D01*
X426233Y432893D01*
X426210Y432881D01*
X426184Y432876D01*
X426101Y432826D01*
X426014Y432782D01*
X425995Y432763D01*
X425973Y432750D01*
X425910Y432676D01*
X425842Y432606D01*
X425826Y432577D01*
X425813Y432563D01*
X425801Y432532D01*
X425761Y432459D01*
X424437Y429264D01*
X421936Y426763D01*
X418668Y425409D01*
X415132Y425409D01*
X411864Y426763D01*
X409363Y429264D01*
X408009Y432532D01*
X408009Y436068D01*
X409363Y439336D01*
X411864Y441837D01*
X415132Y443191D01*
X418668Y443191D01*
X421936Y441837D01*
X424437Y439336D01*
X425761Y436141D01*
X425812Y436058D01*
X425858Y435972D01*
X425877Y435954D01*
X425890Y435932D01*
X425965Y435870D01*
X426036Y435803D01*
X426060Y435792D01*
X426080Y435775D01*
X426171Y435740D01*
X426259Y435699D01*
X426285Y435696D01*
X426309Y435687D01*
X426407Y435683D01*
X426503Y435672D01*
X426529Y435678D01*
X426555Y435676D01*
X426649Y435704D01*
X426744Y435724D01*
X426766Y435738D01*
X426791Y435745D01*
X426871Y435800D01*
X426955Y435850D01*
X426972Y435870D01*
X426993Y435885D01*
X427052Y435963D01*
X427115Y436037D01*
X427125Y436062D01*
X427140Y436083D01*
X427170Y436175D01*
X427207Y436266D01*
X427210Y436298D01*
X427216Y436316D01*
X427216Y436350D01*
X427225Y436432D01*
X427225Y451149D01*
X490102Y514026D01*
X490155Y514100D01*
X490215Y514170D01*
X490227Y514200D01*
X490246Y514226D01*
X490273Y514313D01*
X490307Y514398D01*
X490311Y514439D01*
X490318Y514461D01*
X490317Y514493D01*
X490325Y514565D01*
X490325Y577717D01*
X490306Y577832D01*
X490289Y577948D01*
X490287Y577954D01*
X490286Y577960D01*
X490231Y578063D01*
X490178Y578168D01*
X490173Y578172D01*
X490170Y578178D01*
X490086Y578257D01*
X490002Y578340D01*
X489996Y578343D01*
X489992Y578347D01*
X489975Y578355D01*
X489855Y578421D01*
X488064Y579163D01*
X485563Y581664D01*
X484209Y584932D01*
X484209Y588468D01*
X485563Y591736D01*
X488064Y594237D01*
X491332Y595591D01*
X494868Y595591D01*
X498136Y594237D01*
X500637Y591736D01*
X501991Y588468D01*
X501991Y584932D01*
X500637Y581664D01*
X498136Y579163D01*
X496345Y578421D01*
X496245Y578359D01*
X496145Y578299D01*
X496141Y578294D01*
X496136Y578291D01*
X496061Y578201D01*
X495985Y578112D01*
X495983Y578106D01*
X495979Y578102D01*
X495937Y577994D01*
X495893Y577884D01*
X495892Y577877D01*
X495891Y577872D01*
X495890Y577854D01*
X495875Y577717D01*
X495875Y511951D01*
X432998Y449074D01*
X432945Y449000D01*
X432885Y448930D01*
X432873Y448900D01*
X432854Y448874D01*
X432827Y448787D01*
X432793Y448702D01*
X432789Y448661D01*
X432782Y448639D01*
X432783Y448607D01*
X432775Y448535D01*
X432775Y438364D01*
X432790Y438268D01*
X432800Y438171D01*
X432810Y438147D01*
X432814Y438121D01*
X432860Y438035D01*
X432900Y437946D01*
X432917Y437927D01*
X432930Y437903D01*
X433000Y437836D01*
X433066Y437765D01*
X433089Y437752D01*
X433108Y437734D01*
X433196Y437693D01*
X433282Y437646D01*
X433307Y437641D01*
X433331Y437630D01*
X433428Y437620D01*
X433524Y437602D01*
X433550Y437606D01*
X433575Y437603D01*
X433671Y437624D01*
X433767Y437638D01*
X433790Y437650D01*
X433816Y437656D01*
X433899Y437706D01*
X433986Y437750D01*
X434005Y437768D01*
X434027Y437782D01*
X434090Y437856D01*
X434158Y437925D01*
X434174Y437954D01*
X434187Y437969D01*
X434199Y437999D01*
X434239Y438072D01*
X434763Y439336D01*
X437264Y441837D01*
X440532Y443191D01*
X444068Y443191D01*
X447336Y441837D01*
X449837Y439336D01*
X451191Y436068D01*
X451191Y432532D01*
X449837Y429264D01*
X447336Y426763D01*
X444068Y425409D01*
X440532Y425409D01*
X437264Y426763D01*
X434763Y429264D01*
X434239Y430528D01*
X434188Y430611D01*
X434142Y430697D01*
X434124Y430714D01*
X434110Y430737D01*
X434034Y430799D01*
X433964Y430866D01*
X433940Y430877D01*
X433920Y430894D01*
X433829Y430929D01*
X433741Y430970D01*
X433715Y430972D01*
X433691Y430982D01*
X433593Y430986D01*
X433497Y430997D01*
X433471Y430991D01*
X433445Y430992D01*
X433351Y430965D01*
X433256Y430944D01*
X433234Y430931D01*
X433209Y430924D01*
X433129Y430868D01*
X433045Y430818D01*
X433028Y430798D01*
X433007Y430783D01*
X432948Y430705D01*
X432885Y430631D01*
X432875Y430607D01*
X432860Y430586D01*
X432830Y430494D01*
X432793Y430403D01*
X432790Y430371D01*
X432784Y430352D01*
X432784Y430319D01*
X432775Y430236D01*
X432775Y396351D01*
X431149Y394725D01*
X131351Y394725D01*
G37*
%LPD*%
%LPC*%
G36*
X288132Y425409D02*
X288132Y425409D01*
X284864Y426763D01*
X282363Y429264D01*
X281009Y432532D01*
X281009Y436068D01*
X281751Y437860D01*
X281778Y437974D01*
X281807Y438087D01*
X281806Y438093D01*
X281808Y438099D01*
X281797Y438216D01*
X281787Y438332D01*
X281785Y438338D01*
X281784Y438344D01*
X281737Y438452D01*
X281691Y438559D01*
X281686Y438564D01*
X281684Y438569D01*
X281672Y438583D01*
X281586Y438690D01*
X223274Y497002D01*
X223200Y497055D01*
X223130Y497115D01*
X223100Y497127D01*
X223074Y497146D01*
X222987Y497173D01*
X222902Y497207D01*
X222861Y497211D01*
X222839Y497218D01*
X222807Y497217D01*
X222735Y497225D01*
X128851Y497225D01*
X34492Y591584D01*
X34398Y591651D01*
X34304Y591722D01*
X34297Y591724D01*
X34292Y591727D01*
X34182Y591761D01*
X34070Y591798D01*
X34063Y591798D01*
X34057Y591800D01*
X33941Y591797D01*
X33824Y591796D01*
X33816Y591793D01*
X33811Y591793D01*
X33794Y591787D01*
X33663Y591749D01*
X31795Y590975D01*
X28205Y590975D01*
X24888Y592349D01*
X22349Y594888D01*
X20975Y598205D01*
X20975Y601795D01*
X22349Y605112D01*
X24888Y607651D01*
X28205Y609025D01*
X31795Y609025D01*
X35112Y607651D01*
X37651Y605112D01*
X39025Y601795D01*
X39025Y598205D01*
X38251Y596337D01*
X38225Y596224D01*
X38196Y596110D01*
X38196Y596104D01*
X38195Y596098D01*
X38206Y595981D01*
X38215Y595865D01*
X38218Y595859D01*
X38218Y595853D01*
X38266Y595746D01*
X38311Y595639D01*
X38316Y595633D01*
X38318Y595628D01*
X38331Y595615D01*
X38416Y595508D01*
X130926Y502998D01*
X131000Y502945D01*
X131070Y502885D01*
X131100Y502873D01*
X131126Y502854D01*
X131213Y502827D01*
X131298Y502793D01*
X131339Y502789D01*
X131361Y502782D01*
X131393Y502783D01*
X131465Y502775D01*
X205577Y502775D01*
X205648Y502786D01*
X205720Y502788D01*
X205769Y502806D01*
X205820Y502814D01*
X205884Y502848D01*
X205951Y502873D01*
X205992Y502905D01*
X206037Y502930D01*
X206087Y502982D01*
X206143Y503027D01*
X206171Y503070D01*
X206207Y503108D01*
X206237Y503173D01*
X206276Y503234D01*
X206289Y503284D01*
X206310Y503331D01*
X206318Y503403D01*
X206336Y503473D01*
X206332Y503524D01*
X206337Y503575D01*
X206322Y503646D01*
X206316Y503718D01*
X206296Y503765D01*
X206285Y503816D01*
X206248Y503878D01*
X206220Y503944D01*
X206184Y503989D01*
X206179Y503998D01*
X206166Y504016D01*
X206159Y504027D01*
X206155Y504030D01*
X205227Y505308D01*
X204519Y506697D01*
X204037Y508180D01*
X203911Y508977D01*
X212938Y508977D01*
X212958Y508980D01*
X212977Y508978D01*
X213079Y509000D01*
X213181Y509017D01*
X213198Y509026D01*
X213218Y509030D01*
X213307Y509083D01*
X213398Y509132D01*
X213412Y509146D01*
X213429Y509156D01*
X213496Y509235D01*
X213567Y509310D01*
X213576Y509328D01*
X213589Y509343D01*
X213627Y509439D01*
X213671Y509533D01*
X213673Y509553D01*
X213681Y509571D01*
X213699Y509738D01*
X213699Y510501D01*
X213701Y510501D01*
X213701Y509738D01*
X213704Y509718D01*
X213702Y509699D01*
X213724Y509597D01*
X213741Y509495D01*
X213750Y509478D01*
X213754Y509458D01*
X213807Y509369D01*
X213856Y509278D01*
X213870Y509264D01*
X213880Y509247D01*
X213959Y509180D01*
X214034Y509109D01*
X214052Y509100D01*
X214067Y509087D01*
X214163Y509048D01*
X214257Y509005D01*
X214277Y509003D01*
X214295Y508995D01*
X214462Y508977D01*
X223489Y508977D01*
X223363Y508180D01*
X222881Y506697D01*
X222173Y505308D01*
X221221Y503998D01*
X221217Y503989D01*
X221193Y503964D01*
X221171Y503917D01*
X221141Y503875D01*
X221120Y503806D01*
X221090Y503741D01*
X221084Y503690D01*
X221069Y503640D01*
X221070Y503568D01*
X221063Y503497D01*
X221074Y503446D01*
X221075Y503394D01*
X221099Y503327D01*
X221115Y503256D01*
X221141Y503212D01*
X221159Y503163D01*
X221204Y503107D01*
X221241Y503045D01*
X221280Y503011D01*
X221312Y502971D01*
X221373Y502932D01*
X221428Y502885D01*
X221476Y502866D01*
X221519Y502838D01*
X221589Y502820D01*
X221656Y502793D01*
X221727Y502785D01*
X221758Y502778D01*
X221781Y502779D01*
X221823Y502775D01*
X225349Y502775D01*
X285510Y442614D01*
X285605Y442545D01*
X285699Y442476D01*
X285705Y442474D01*
X285710Y442470D01*
X285822Y442436D01*
X285933Y442400D01*
X285939Y442400D01*
X285945Y442398D01*
X286062Y442401D01*
X286179Y442402D01*
X286186Y442404D01*
X286191Y442404D01*
X286209Y442411D01*
X286340Y442449D01*
X288132Y443191D01*
X291668Y443191D01*
X294936Y441837D01*
X297437Y439336D01*
X298791Y436068D01*
X298791Y432532D01*
X297437Y429264D01*
X294936Y426763D01*
X291668Y425409D01*
X288132Y425409D01*
G37*
%LPD*%
%LPC*%
G36*
X529605Y214375D02*
X529605Y214375D01*
X521975Y222005D01*
X521975Y232795D01*
X523252Y234072D01*
X523305Y234146D01*
X523365Y234215D01*
X523377Y234246D01*
X523396Y234272D01*
X523423Y234359D01*
X523457Y234444D01*
X523461Y234485D01*
X523468Y234507D01*
X523467Y234539D01*
X523475Y234610D01*
X523475Y288990D01*
X523461Y289080D01*
X523453Y289171D01*
X523441Y289200D01*
X523436Y289232D01*
X523393Y289313D01*
X523357Y289397D01*
X523331Y289429D01*
X523320Y289450D01*
X523297Y289472D01*
X523252Y289528D01*
X521975Y290805D01*
X521975Y301595D01*
X529605Y309225D01*
X540395Y309225D01*
X548025Y301595D01*
X548025Y290805D01*
X546748Y289528D01*
X546695Y289454D01*
X546635Y289385D01*
X546623Y289354D01*
X546604Y289328D01*
X546577Y289241D01*
X546543Y289156D01*
X546539Y289115D01*
X546532Y289093D01*
X546533Y289061D01*
X546525Y288990D01*
X546525Y234610D01*
X546539Y234520D01*
X546547Y234429D01*
X546559Y234400D01*
X546564Y234368D01*
X546607Y234287D01*
X546643Y234203D01*
X546669Y234171D01*
X546680Y234150D01*
X546703Y234128D01*
X546748Y234072D01*
X548025Y232795D01*
X548025Y222005D01*
X540395Y214375D01*
X529605Y214375D01*
G37*
%LPD*%
%LPC*%
G36*
X528505Y115275D02*
X528505Y115275D01*
X520875Y122905D01*
X520875Y133695D01*
X522152Y134972D01*
X522205Y135046D01*
X522265Y135115D01*
X522277Y135146D01*
X522296Y135172D01*
X522323Y135259D01*
X522357Y135344D01*
X522361Y135385D01*
X522368Y135407D01*
X522367Y135439D01*
X522375Y135510D01*
X522375Y186290D01*
X522361Y186380D01*
X522353Y186471D01*
X522341Y186500D01*
X522336Y186532D01*
X522293Y186613D01*
X522257Y186697D01*
X522231Y186729D01*
X522220Y186750D01*
X522197Y186772D01*
X522152Y186828D01*
X521975Y187005D01*
X521975Y197795D01*
X529605Y205425D01*
X540395Y205425D01*
X548025Y197795D01*
X548025Y187005D01*
X545648Y184628D01*
X545595Y184554D01*
X545535Y184485D01*
X545523Y184454D01*
X545504Y184428D01*
X545477Y184341D01*
X545443Y184256D01*
X545439Y184215D01*
X545432Y184193D01*
X545433Y184161D01*
X545425Y184090D01*
X545425Y135510D01*
X545439Y135420D01*
X545447Y135329D01*
X545459Y135300D01*
X545464Y135268D01*
X545507Y135187D01*
X545543Y135103D01*
X545569Y135071D01*
X545580Y135050D01*
X545603Y135028D01*
X545648Y134972D01*
X546925Y133695D01*
X546925Y122905D01*
X539295Y115275D01*
X528505Y115275D01*
G37*
%LPD*%
%LPC*%
G36*
X526688Y844839D02*
X526688Y844839D01*
X520288Y846554D01*
X514551Y849866D01*
X509866Y854551D01*
X506554Y860288D01*
X504839Y866688D01*
X504839Y873312D01*
X506554Y879712D01*
X509866Y885449D01*
X514551Y890134D01*
X520288Y893446D01*
X526688Y895161D01*
X533312Y895161D01*
X539712Y893446D01*
X545449Y890134D01*
X550134Y885449D01*
X553446Y879712D01*
X555161Y873312D01*
X555161Y866688D01*
X553446Y860288D01*
X550134Y854551D01*
X545449Y849866D01*
X539712Y846554D01*
X533312Y844839D01*
X526688Y844839D01*
G37*
%LPD*%
%LPC*%
G36*
X36688Y844839D02*
X36688Y844839D01*
X30288Y846554D01*
X24551Y849866D01*
X19866Y854551D01*
X16554Y860288D01*
X14839Y866688D01*
X14839Y873312D01*
X16554Y879712D01*
X19866Y885449D01*
X24551Y890134D01*
X30288Y893446D01*
X36688Y895161D01*
X43312Y895161D01*
X49712Y893446D01*
X55449Y890134D01*
X60134Y885449D01*
X63446Y879712D01*
X65161Y873312D01*
X65161Y866688D01*
X63446Y860288D01*
X60134Y854551D01*
X55449Y849866D01*
X49712Y846554D01*
X43312Y844839D01*
X36688Y844839D01*
G37*
%LPD*%
%LPC*%
G36*
X526688Y14839D02*
X526688Y14839D01*
X520288Y16554D01*
X514551Y19866D01*
X509866Y24551D01*
X506554Y30288D01*
X504839Y36688D01*
X504839Y43312D01*
X506554Y49712D01*
X509866Y55449D01*
X514551Y60134D01*
X520288Y63446D01*
X526688Y65161D01*
X533312Y65161D01*
X539712Y63446D01*
X545449Y60134D01*
X550134Y55449D01*
X553446Y49712D01*
X555161Y43312D01*
X555161Y36688D01*
X553446Y30288D01*
X550134Y24551D01*
X545449Y19866D01*
X539712Y16554D01*
X533312Y14839D01*
X526688Y14839D01*
G37*
%LPD*%
%LPC*%
G36*
X36688Y14839D02*
X36688Y14839D01*
X30288Y16554D01*
X24551Y19866D01*
X19866Y24551D01*
X16554Y30288D01*
X14839Y36688D01*
X14839Y43312D01*
X16554Y49712D01*
X19866Y55449D01*
X24551Y60134D01*
X30288Y63446D01*
X36688Y65161D01*
X43312Y65161D01*
X49712Y63446D01*
X55449Y60134D01*
X60134Y55449D01*
X63446Y49712D01*
X65161Y43312D01*
X65161Y36688D01*
X63446Y30288D01*
X60134Y24551D01*
X55449Y19866D01*
X49712Y16554D01*
X43312Y14839D01*
X36688Y14839D01*
G37*
%LPD*%
%LPC*%
G36*
X337802Y544693D02*
X337802Y544693D01*
X335493Y547002D01*
X335419Y547055D01*
X335349Y547115D01*
X335319Y547127D01*
X335293Y547146D01*
X335206Y547173D01*
X335121Y547207D01*
X335080Y547211D01*
X335058Y547218D01*
X335026Y547217D01*
X334955Y547225D01*
X300051Y547225D01*
X268890Y578386D01*
X268795Y578454D01*
X268701Y578524D01*
X268695Y578526D01*
X268690Y578530D01*
X268579Y578564D01*
X268467Y578600D01*
X268461Y578600D01*
X268455Y578602D01*
X268338Y578599D01*
X268221Y578598D01*
X268214Y578596D01*
X268209Y578596D01*
X268191Y578589D01*
X268060Y578551D01*
X266268Y577809D01*
X262732Y577809D01*
X259464Y579163D01*
X256963Y581664D01*
X255609Y584932D01*
X255609Y588468D01*
X256963Y591736D01*
X259464Y594237D01*
X262732Y595591D01*
X266268Y595591D01*
X269536Y594237D01*
X272037Y591736D01*
X273391Y588468D01*
X273391Y584932D01*
X272649Y583140D01*
X272622Y583026D01*
X272593Y582913D01*
X272594Y582907D01*
X272592Y582901D01*
X272603Y582784D01*
X272613Y582668D01*
X272615Y582662D01*
X272616Y582656D01*
X272663Y582548D01*
X272709Y582441D01*
X272714Y582436D01*
X272716Y582431D01*
X272728Y582417D01*
X272814Y582310D01*
X302126Y552998D01*
X302200Y552945D01*
X302270Y552885D01*
X302300Y552873D01*
X302326Y552854D01*
X302413Y552827D01*
X302498Y552793D01*
X302539Y552789D01*
X302561Y552782D01*
X302593Y552783D01*
X302665Y552775D01*
X334955Y552775D01*
X335045Y552789D01*
X335136Y552797D01*
X335165Y552809D01*
X335197Y552814D01*
X335278Y552857D01*
X335362Y552893D01*
X335394Y552919D01*
X335415Y552930D01*
X335437Y552953D01*
X335493Y552998D01*
X337802Y555307D01*
X342198Y555307D01*
X345307Y552198D01*
X345307Y547802D01*
X342198Y544693D01*
X337802Y544693D01*
G37*
%LPD*%
%LPC*%
G36*
X32338Y648685D02*
X32338Y648685D01*
X28510Y650271D01*
X25581Y653200D01*
X23995Y657028D01*
X23995Y661172D01*
X25581Y665000D01*
X28510Y667929D01*
X32338Y669515D01*
X54262Y669515D01*
X58090Y667929D01*
X61019Y665000D01*
X62605Y661172D01*
X62605Y657028D01*
X61019Y653200D01*
X58090Y650271D01*
X54262Y648685D01*
X32338Y648685D01*
G37*
%LPD*%
%LPC*%
G36*
X32338Y674085D02*
X32338Y674085D01*
X28510Y675671D01*
X25581Y678600D01*
X23995Y682428D01*
X23995Y686572D01*
X25581Y690400D01*
X28510Y693329D01*
X32338Y694915D01*
X54262Y694915D01*
X58090Y693329D01*
X61019Y690400D01*
X62605Y686572D01*
X62605Y682428D01*
X61019Y678600D01*
X58090Y675671D01*
X54262Y674085D01*
X32338Y674085D01*
G37*
%LPD*%
%LPC*%
G36*
X32338Y801085D02*
X32338Y801085D01*
X28510Y802671D01*
X25581Y805600D01*
X23995Y809428D01*
X23995Y813572D01*
X25581Y817400D01*
X28510Y820329D01*
X32338Y821915D01*
X54262Y821915D01*
X58090Y820329D01*
X61019Y817400D01*
X62605Y813572D01*
X62605Y809428D01*
X61019Y805600D01*
X58090Y802671D01*
X54262Y801085D01*
X32338Y801085D01*
G37*
%LPD*%
%LPC*%
G36*
X417238Y699485D02*
X417238Y699485D01*
X413410Y701071D01*
X410481Y704000D01*
X408895Y707828D01*
X408895Y711972D01*
X410481Y715800D01*
X413410Y718729D01*
X417238Y720315D01*
X439162Y720315D01*
X442990Y718729D01*
X445919Y715800D01*
X447505Y711972D01*
X447505Y707828D01*
X445919Y704000D01*
X442990Y701071D01*
X439162Y699485D01*
X417238Y699485D01*
G37*
%LPD*%
%LPC*%
G36*
X417238Y674085D02*
X417238Y674085D01*
X413410Y675671D01*
X410481Y678600D01*
X408895Y682428D01*
X408895Y686572D01*
X410481Y690400D01*
X413410Y693329D01*
X417238Y694915D01*
X439162Y694915D01*
X442990Y693329D01*
X445919Y690400D01*
X447505Y686572D01*
X447505Y682428D01*
X445919Y678600D01*
X442990Y675671D01*
X439162Y674085D01*
X417238Y674085D01*
G37*
%LPD*%
%LPC*%
G36*
X417238Y801085D02*
X417238Y801085D01*
X413410Y802671D01*
X410481Y805600D01*
X408895Y809428D01*
X408895Y813572D01*
X410481Y817400D01*
X413410Y820329D01*
X417238Y821915D01*
X439162Y821915D01*
X442990Y820329D01*
X445919Y817400D01*
X447505Y813572D01*
X447505Y809428D01*
X445919Y805600D01*
X442990Y802671D01*
X439162Y801085D01*
X417238Y801085D01*
G37*
%LPD*%
%LPC*%
G36*
X30705Y182575D02*
X30705Y182575D01*
X23075Y190205D01*
X23075Y200995D01*
X30705Y208625D01*
X41495Y208625D01*
X49125Y200995D01*
X49125Y190205D01*
X41495Y182575D01*
X30705Y182575D01*
G37*
%LPD*%
%LPC*%
G36*
X32105Y284675D02*
X32105Y284675D01*
X24475Y292305D01*
X24475Y303095D01*
X32105Y310725D01*
X42895Y310725D01*
X50525Y303095D01*
X50525Y292305D01*
X42895Y284675D01*
X32105Y284675D01*
G37*
%LPD*%
%LPC*%
G36*
X30705Y78975D02*
X30705Y78975D01*
X23075Y86605D01*
X23075Y97395D01*
X30705Y105025D01*
X41495Y105025D01*
X49125Y97395D01*
X49125Y86605D01*
X41495Y78975D01*
X30705Y78975D01*
G37*
%LPD*%
%LPC*%
G36*
X230561Y281555D02*
X230561Y281555D01*
X227200Y282947D01*
X224627Y285520D01*
X223235Y288881D01*
X223235Y292519D01*
X224627Y295880D01*
X227200Y298453D01*
X230561Y299845D01*
X249439Y299845D01*
X252800Y298453D01*
X255373Y295880D01*
X256765Y292519D01*
X256765Y288881D01*
X255373Y285520D01*
X252800Y282947D01*
X249439Y281555D01*
X230561Y281555D01*
G37*
%LPD*%
%LPC*%
G36*
X228061Y122555D02*
X228061Y122555D01*
X224700Y123947D01*
X222127Y126520D01*
X220735Y129881D01*
X220735Y133519D01*
X222127Y136880D01*
X224700Y139453D01*
X228061Y140845D01*
X246939Y140845D01*
X250300Y139453D01*
X252873Y136880D01*
X254265Y133519D01*
X254265Y129881D01*
X252873Y126520D01*
X250300Y123947D01*
X246939Y122555D01*
X228061Y122555D01*
G37*
%LPD*%
%LPC*%
G36*
X228061Y147955D02*
X228061Y147955D01*
X224700Y149347D01*
X222127Y151920D01*
X220735Y155281D01*
X220735Y158919D01*
X222127Y162280D01*
X224700Y164853D01*
X228061Y166245D01*
X246939Y166245D01*
X250300Y164853D01*
X252873Y162280D01*
X254265Y158919D01*
X254265Y155281D01*
X252873Y151920D01*
X250300Y149347D01*
X246939Y147955D01*
X228061Y147955D01*
G37*
%LPD*%
%LPC*%
G36*
X230561Y256155D02*
X230561Y256155D01*
X227200Y257547D01*
X224627Y260120D01*
X223235Y263481D01*
X223235Y267119D01*
X224627Y270480D01*
X227200Y273053D01*
X230561Y274445D01*
X249439Y274445D01*
X252800Y273053D01*
X255373Y270480D01*
X256765Y267119D01*
X256765Y263481D01*
X255373Y260120D01*
X252800Y257547D01*
X249439Y256155D01*
X230561Y256155D01*
G37*
%LPD*%
%LPC*%
G36*
X320561Y257355D02*
X320561Y257355D01*
X317200Y258747D01*
X314627Y261320D01*
X313235Y264681D01*
X313235Y268319D01*
X314627Y271680D01*
X317200Y274253D01*
X320561Y275645D01*
X339439Y275645D01*
X342800Y274253D01*
X345373Y271680D01*
X346765Y268319D01*
X346765Y264681D01*
X345373Y261320D01*
X342800Y258747D01*
X339439Y257355D01*
X320561Y257355D01*
G37*
%LPD*%
%LPC*%
G36*
X320561Y231955D02*
X320561Y231955D01*
X317200Y233347D01*
X314627Y235920D01*
X313235Y239281D01*
X313235Y242919D01*
X314627Y246280D01*
X317200Y248853D01*
X320561Y250245D01*
X339439Y250245D01*
X342800Y248853D01*
X345373Y246280D01*
X346765Y242919D01*
X346765Y239281D01*
X345373Y235920D01*
X342800Y233347D01*
X339439Y231955D01*
X320561Y231955D01*
G37*
%LPD*%
%LPC*%
G36*
X321261Y147455D02*
X321261Y147455D01*
X317900Y148847D01*
X315327Y151420D01*
X313935Y154781D01*
X313935Y158419D01*
X315327Y161780D01*
X317900Y164353D01*
X321261Y165745D01*
X340139Y165745D01*
X343500Y164353D01*
X346073Y161780D01*
X347465Y158419D01*
X347465Y154781D01*
X346073Y151420D01*
X343500Y148847D01*
X340139Y147455D01*
X321261Y147455D01*
G37*
%LPD*%
%LPC*%
G36*
X184927Y235377D02*
X184927Y235377D01*
X180913Y237040D01*
X177840Y240113D01*
X176177Y244127D01*
X176177Y248473D01*
X177840Y252487D01*
X180913Y255560D01*
X184927Y257223D01*
X189273Y257223D01*
X193287Y255560D01*
X196360Y252487D01*
X198023Y248473D01*
X198023Y244127D01*
X196360Y240113D01*
X193287Y237040D01*
X189273Y235377D01*
X184927Y235377D01*
G37*
%LPD*%
%LPC*%
G36*
X385327Y237277D02*
X385327Y237277D01*
X381313Y238940D01*
X378240Y242013D01*
X376577Y246027D01*
X376577Y250373D01*
X378240Y254387D01*
X381313Y257460D01*
X385327Y259123D01*
X389673Y259123D01*
X393687Y257460D01*
X396760Y254387D01*
X398423Y250373D01*
X398423Y246027D01*
X396760Y242013D01*
X393687Y238940D01*
X389673Y237277D01*
X385327Y237277D01*
G37*
%LPD*%
%LPC*%
G36*
X187827Y275277D02*
X187827Y275277D01*
X183813Y276940D01*
X180740Y280013D01*
X179077Y284027D01*
X179077Y288373D01*
X180740Y292387D01*
X183813Y295460D01*
X187827Y297123D01*
X192173Y297123D01*
X196187Y295460D01*
X199260Y292387D01*
X200923Y288373D01*
X200923Y284027D01*
X199260Y280013D01*
X196187Y276940D01*
X192173Y275277D01*
X187827Y275277D01*
G37*
%LPD*%
%LPC*%
G36*
X384827Y278377D02*
X384827Y278377D01*
X380813Y280040D01*
X377740Y283113D01*
X376077Y287127D01*
X376077Y291473D01*
X377740Y295487D01*
X380813Y298560D01*
X384827Y300223D01*
X389173Y300223D01*
X393187Y298560D01*
X396260Y295487D01*
X397923Y291473D01*
X397923Y287127D01*
X396260Y283113D01*
X393187Y280040D01*
X389173Y278377D01*
X384827Y278377D01*
G37*
%LPD*%
%LPC*%
G36*
X99027Y561677D02*
X99027Y561677D01*
X95013Y563340D01*
X91940Y566413D01*
X90277Y570427D01*
X90277Y574773D01*
X91940Y578787D01*
X95013Y581860D01*
X99027Y583523D01*
X103373Y583523D01*
X107387Y581860D01*
X110460Y578787D01*
X112123Y574773D01*
X112123Y570427D01*
X110460Y566413D01*
X107387Y563340D01*
X103373Y561677D01*
X99027Y561677D01*
G37*
%LPD*%
%LPC*%
G36*
X108727Y235377D02*
X108727Y235377D01*
X104713Y237040D01*
X101640Y240113D01*
X99977Y244127D01*
X99977Y248473D01*
X101640Y252487D01*
X104713Y255560D01*
X108727Y257223D01*
X113073Y257223D01*
X117087Y255560D01*
X120160Y252487D01*
X121823Y248473D01*
X121823Y244127D01*
X120160Y240113D01*
X117087Y237040D01*
X113073Y235377D01*
X108727Y235377D01*
G37*
%LPD*%
%LPC*%
G36*
X297927Y729977D02*
X297927Y729977D01*
X293913Y731640D01*
X290840Y734713D01*
X289177Y738727D01*
X289177Y743073D01*
X290840Y747087D01*
X293913Y750160D01*
X297927Y751823D01*
X302273Y751823D01*
X306287Y750160D01*
X309360Y747087D01*
X311023Y743073D01*
X311023Y738727D01*
X309360Y734713D01*
X306287Y731640D01*
X302273Y729977D01*
X297927Y729977D01*
G37*
%LPD*%
%LPC*%
G36*
X357927Y729777D02*
X357927Y729777D01*
X353913Y731440D01*
X350840Y734513D01*
X349177Y738527D01*
X349177Y742873D01*
X350840Y746887D01*
X353913Y749960D01*
X357927Y751623D01*
X362273Y751623D01*
X366287Y749960D01*
X369360Y746887D01*
X371023Y742873D01*
X371023Y738527D01*
X369360Y734513D01*
X366287Y731440D01*
X362273Y729777D01*
X357927Y729777D01*
G37*
%LPD*%
%LPC*%
G36*
X267127Y729777D02*
X267127Y729777D01*
X263113Y731440D01*
X260040Y734513D01*
X258377Y738527D01*
X258377Y742873D01*
X260040Y746887D01*
X263113Y749960D01*
X267127Y751623D01*
X271473Y751623D01*
X275487Y749960D01*
X278560Y746887D01*
X280223Y742873D01*
X280223Y738527D01*
X278560Y734513D01*
X275487Y731440D01*
X271473Y729777D01*
X267127Y729777D01*
G37*
%LPD*%
%LPC*%
G36*
X235327Y729677D02*
X235327Y729677D01*
X231313Y731340D01*
X228240Y734413D01*
X226577Y738427D01*
X226577Y742773D01*
X228240Y746787D01*
X231313Y749860D01*
X235327Y751523D01*
X239673Y751523D01*
X243687Y749860D01*
X246760Y746787D01*
X248423Y742773D01*
X248423Y738427D01*
X246760Y734413D01*
X243687Y731340D01*
X239673Y729677D01*
X235327Y729677D01*
G37*
%LPD*%
%LPC*%
G36*
X206527Y729377D02*
X206527Y729377D01*
X202513Y731040D01*
X199440Y734113D01*
X197777Y738127D01*
X197777Y742473D01*
X199440Y746487D01*
X202513Y749560D01*
X206527Y751223D01*
X210873Y751223D01*
X214887Y749560D01*
X217960Y746487D01*
X219623Y742473D01*
X219623Y738127D01*
X217960Y734113D01*
X214887Y731040D01*
X210873Y729377D01*
X206527Y729377D01*
G37*
%LPD*%
%LPC*%
G36*
X327927Y728877D02*
X327927Y728877D01*
X323913Y730540D01*
X320840Y733613D01*
X319177Y737627D01*
X319177Y741973D01*
X320840Y745987D01*
X323913Y749060D01*
X327927Y750723D01*
X332273Y750723D01*
X336287Y749060D01*
X339360Y745987D01*
X341023Y741973D01*
X341023Y737627D01*
X339360Y733613D01*
X336287Y730540D01*
X332273Y728877D01*
X327927Y728877D01*
G37*
%LPD*%
%LPC*%
G36*
X22827Y561677D02*
X22827Y561677D01*
X18813Y563340D01*
X15740Y566413D01*
X14077Y570427D01*
X14077Y574773D01*
X15740Y578787D01*
X18813Y581860D01*
X22827Y583523D01*
X27173Y583523D01*
X31187Y581860D01*
X34260Y578787D01*
X35923Y574773D01*
X35923Y570427D01*
X34260Y566413D01*
X31187Y563340D01*
X27173Y561677D01*
X22827Y561677D01*
G37*
%LPD*%
%LPC*%
G36*
X297927Y653777D02*
X297927Y653777D01*
X293913Y655440D01*
X290840Y658513D01*
X289177Y662527D01*
X289177Y666873D01*
X290840Y670887D01*
X293913Y673960D01*
X297927Y675623D01*
X302273Y675623D01*
X306287Y673960D01*
X309360Y670887D01*
X311023Y666873D01*
X311023Y662527D01*
X309360Y658513D01*
X306287Y655440D01*
X302273Y653777D01*
X297927Y653777D01*
G37*
%LPD*%
%LPC*%
G36*
X267127Y653577D02*
X267127Y653577D01*
X263113Y655240D01*
X260040Y658313D01*
X258377Y662327D01*
X258377Y666673D01*
X260040Y670687D01*
X263113Y673760D01*
X267127Y675423D01*
X271473Y675423D01*
X275487Y673760D01*
X278560Y670687D01*
X280223Y666673D01*
X280223Y662327D01*
X278560Y658313D01*
X275487Y655240D01*
X271473Y653577D01*
X267127Y653577D01*
G37*
%LPD*%
%LPC*%
G36*
X357927Y653577D02*
X357927Y653577D01*
X353913Y655240D01*
X350840Y658313D01*
X349177Y662327D01*
X349177Y666673D01*
X350840Y670687D01*
X353913Y673760D01*
X357927Y675423D01*
X362273Y675423D01*
X366287Y673760D01*
X369360Y670687D01*
X371023Y666673D01*
X371023Y662327D01*
X369360Y658313D01*
X366287Y655240D01*
X362273Y653577D01*
X357927Y653577D01*
G37*
%LPD*%
%LPC*%
G36*
X235327Y653477D02*
X235327Y653477D01*
X231313Y655140D01*
X228240Y658213D01*
X226577Y662227D01*
X226577Y666573D01*
X228240Y670587D01*
X231313Y673660D01*
X235327Y675323D01*
X239673Y675323D01*
X243687Y673660D01*
X246760Y670587D01*
X248423Y666573D01*
X248423Y662227D01*
X246760Y658213D01*
X243687Y655140D01*
X239673Y653477D01*
X235327Y653477D01*
G37*
%LPD*%
%LPC*%
G36*
X206527Y653177D02*
X206527Y653177D01*
X202513Y654840D01*
X199440Y657913D01*
X197777Y661927D01*
X197777Y666273D01*
X199440Y670287D01*
X202513Y673360D01*
X206527Y675023D01*
X210873Y675023D01*
X214887Y673360D01*
X217960Y670287D01*
X219623Y666273D01*
X219623Y661927D01*
X217960Y657913D01*
X214887Y654840D01*
X210873Y653177D01*
X206527Y653177D01*
G37*
%LPD*%
%LPC*%
G36*
X477827Y839077D02*
X477827Y839077D01*
X473813Y840740D01*
X470740Y843813D01*
X469077Y847827D01*
X469077Y852173D01*
X470740Y856187D01*
X473813Y859260D01*
X477827Y860923D01*
X482173Y860923D01*
X486187Y859260D01*
X489260Y856187D01*
X490923Y852173D01*
X490923Y847827D01*
X489260Y843813D01*
X486187Y840740D01*
X482173Y839077D01*
X477827Y839077D01*
G37*
%LPD*%
%LPC*%
G36*
X452427Y839077D02*
X452427Y839077D01*
X448413Y840740D01*
X445340Y843813D01*
X443677Y847827D01*
X443677Y852173D01*
X445340Y856187D01*
X448413Y859260D01*
X452427Y860923D01*
X456773Y860923D01*
X460787Y859260D01*
X463860Y856187D01*
X465523Y852173D01*
X465523Y847827D01*
X463860Y843813D01*
X460787Y840740D01*
X456773Y839077D01*
X452427Y839077D01*
G37*
%LPD*%
%LPC*%
G36*
X183727Y140877D02*
X183727Y140877D01*
X179713Y142540D01*
X176640Y145613D01*
X174977Y149627D01*
X174977Y153973D01*
X176640Y157987D01*
X179713Y161060D01*
X183727Y162723D01*
X188073Y162723D01*
X192087Y161060D01*
X195160Y157987D01*
X196823Y153973D01*
X196823Y149627D01*
X195160Y145613D01*
X192087Y142540D01*
X188073Y140877D01*
X183727Y140877D01*
G37*
%LPD*%
%LPC*%
G36*
X471727Y137277D02*
X471727Y137277D01*
X467713Y138940D01*
X464640Y142013D01*
X462977Y146027D01*
X462977Y150373D01*
X464640Y154387D01*
X467713Y157460D01*
X471727Y159123D01*
X476073Y159123D01*
X480087Y157460D01*
X483160Y154387D01*
X484823Y150373D01*
X484823Y146027D01*
X483160Y142013D01*
X480087Y138940D01*
X476073Y137277D01*
X471727Y137277D01*
G37*
%LPD*%
%LPC*%
G36*
X327927Y652677D02*
X327927Y652677D01*
X323913Y654340D01*
X320840Y657413D01*
X319177Y661427D01*
X319177Y665773D01*
X320840Y669787D01*
X323913Y672860D01*
X327927Y674523D01*
X332273Y674523D01*
X336287Y672860D01*
X339360Y669787D01*
X341023Y665773D01*
X341023Y661427D01*
X339360Y657413D01*
X336287Y654340D01*
X332273Y652677D01*
X327927Y652677D01*
G37*
%LPD*%
%LPC*%
G36*
X108727Y97277D02*
X108727Y97277D01*
X104713Y98940D01*
X101640Y102013D01*
X99977Y106027D01*
X99977Y110373D01*
X101640Y114387D01*
X104713Y117460D01*
X108727Y119123D01*
X113073Y119123D01*
X117087Y117460D01*
X120160Y114387D01*
X121823Y110373D01*
X121823Y106027D01*
X120160Y102013D01*
X117087Y98940D01*
X113073Y97277D01*
X108727Y97277D01*
G37*
%LPD*%
%LPC*%
G36*
X470127Y97277D02*
X470127Y97277D01*
X466113Y98940D01*
X463040Y102013D01*
X461377Y106027D01*
X461377Y110373D01*
X463040Y114387D01*
X466113Y117460D01*
X470127Y119123D01*
X474473Y119123D01*
X478487Y117460D01*
X481560Y114387D01*
X483223Y110373D01*
X483223Y106027D01*
X481560Y102013D01*
X478487Y98940D01*
X474473Y97277D01*
X470127Y97277D01*
G37*
%LPD*%
%LPC*%
G36*
X246627Y17877D02*
X246627Y17877D01*
X242613Y19540D01*
X239540Y22613D01*
X237877Y26627D01*
X237877Y30973D01*
X239540Y34987D01*
X242613Y38060D01*
X246627Y39723D01*
X250973Y39723D01*
X254987Y38060D01*
X258060Y34987D01*
X259723Y30973D01*
X259723Y26627D01*
X258060Y22613D01*
X254987Y19540D01*
X250973Y17877D01*
X246627Y17877D01*
G37*
%LPD*%
%LPC*%
G36*
X121127Y836477D02*
X121127Y836477D01*
X117113Y838140D01*
X114040Y841213D01*
X112377Y845227D01*
X112377Y849573D01*
X114040Y853587D01*
X117113Y856660D01*
X121127Y858323D01*
X125473Y858323D01*
X129487Y856660D01*
X132560Y853587D01*
X134223Y849573D01*
X134223Y845227D01*
X132560Y841213D01*
X129487Y838140D01*
X125473Y836477D01*
X121127Y836477D01*
G37*
%LPD*%
%LPC*%
G36*
X184927Y97277D02*
X184927Y97277D01*
X180913Y98940D01*
X177840Y102013D01*
X176177Y106027D01*
X176177Y110373D01*
X177840Y114387D01*
X180913Y117460D01*
X184927Y119123D01*
X189273Y119123D01*
X193287Y117460D01*
X196360Y114387D01*
X198023Y110373D01*
X198023Y106027D01*
X196360Y102013D01*
X193287Y98940D01*
X189273Y97277D01*
X184927Y97277D01*
G37*
%LPD*%
%LPC*%
G36*
X321227Y20277D02*
X321227Y20277D01*
X317213Y21940D01*
X314140Y25013D01*
X312477Y29027D01*
X312477Y33373D01*
X314140Y37387D01*
X317213Y40460D01*
X321227Y42123D01*
X325573Y42123D01*
X329587Y40460D01*
X332660Y37387D01*
X334323Y33373D01*
X334323Y29027D01*
X332660Y25013D01*
X329587Y21940D01*
X325573Y20277D01*
X321227Y20277D01*
G37*
%LPD*%
%LPC*%
G36*
X346627Y20277D02*
X346627Y20277D01*
X342613Y21940D01*
X339540Y25013D01*
X337877Y29027D01*
X337877Y33373D01*
X339540Y37387D01*
X342613Y40460D01*
X346627Y42123D01*
X350973Y42123D01*
X354987Y40460D01*
X358060Y37387D01*
X359723Y33373D01*
X359723Y29027D01*
X358060Y25013D01*
X354987Y21940D01*
X350973Y20277D01*
X346627Y20277D01*
G37*
%LPD*%
%LPC*%
G36*
X221227Y17877D02*
X221227Y17877D01*
X217213Y19540D01*
X214140Y22613D01*
X212477Y26627D01*
X212477Y30973D01*
X214140Y34987D01*
X217213Y38060D01*
X221227Y39723D01*
X225573Y39723D01*
X229587Y38060D01*
X232660Y34987D01*
X234323Y30973D01*
X234323Y26627D01*
X232660Y22613D01*
X229587Y19540D01*
X225573Y17877D01*
X221227Y17877D01*
G37*
%LPD*%
%LPC*%
G36*
X338846Y863377D02*
X338846Y863377D01*
X333043Y869180D01*
X333043Y877388D01*
X338846Y883191D01*
X347054Y883191D01*
X352857Y877388D01*
X352857Y869180D01*
X347054Y863377D01*
X338846Y863377D01*
G37*
%LPD*%
%LPC*%
G36*
X247346Y864777D02*
X247346Y864777D01*
X241543Y870580D01*
X241543Y878788D01*
X247346Y884591D01*
X255554Y884591D01*
X261357Y878788D01*
X261357Y870580D01*
X255554Y864777D01*
X247346Y864777D01*
G37*
%LPD*%
%LPC*%
G36*
X264719Y845409D02*
X264719Y845409D01*
X261078Y846917D01*
X258291Y849704D01*
X256783Y853345D01*
X256783Y857287D01*
X258291Y860928D01*
X261078Y863715D01*
X264719Y865223D01*
X268661Y865223D01*
X272302Y863715D01*
X275089Y860928D01*
X276597Y857287D01*
X276597Y853345D01*
X275089Y849704D01*
X272302Y846917D01*
X268661Y845409D01*
X264719Y845409D01*
G37*
%LPD*%
%LPC*%
G36*
X313039Y863377D02*
X313039Y863377D01*
X309398Y864885D01*
X306611Y867672D01*
X305103Y871313D01*
X305103Y875255D01*
X306611Y878896D01*
X309398Y881683D01*
X313039Y883191D01*
X316981Y883191D01*
X320622Y881683D01*
X323409Y878896D01*
X324917Y875255D01*
X324917Y871313D01*
X323409Y867672D01*
X320622Y864885D01*
X316981Y863377D01*
X313039Y863377D01*
G37*
%LPD*%
%LPC*%
G36*
X221539Y864777D02*
X221539Y864777D01*
X217898Y866285D01*
X215111Y869072D01*
X213603Y872713D01*
X213603Y876655D01*
X215111Y880296D01*
X217898Y883083D01*
X221539Y884591D01*
X225481Y884591D01*
X229122Y883083D01*
X231909Y880296D01*
X233417Y876655D01*
X233417Y872713D01*
X231909Y869072D01*
X229122Y866285D01*
X225481Y864777D01*
X221539Y864777D01*
G37*
%LPD*%
%LPC*%
G36*
X356219Y844009D02*
X356219Y844009D01*
X352578Y845517D01*
X349791Y848304D01*
X348283Y851945D01*
X348283Y855887D01*
X349791Y859528D01*
X352578Y862315D01*
X356219Y863823D01*
X360161Y863823D01*
X363802Y862315D01*
X366589Y859528D01*
X368097Y855887D01*
X368097Y851945D01*
X366589Y848304D01*
X363802Y845517D01*
X360161Y844009D01*
X356219Y844009D01*
G37*
%LPD*%
%LPC*%
G36*
X234239Y845409D02*
X234239Y845409D01*
X230598Y846917D01*
X227811Y849704D01*
X226303Y853345D01*
X226303Y857287D01*
X227811Y860928D01*
X230598Y863715D01*
X234239Y865223D01*
X238181Y865223D01*
X241822Y863715D01*
X244609Y860928D01*
X246117Y857287D01*
X246117Y853345D01*
X244609Y849704D01*
X241822Y846917D01*
X238181Y845409D01*
X234239Y845409D01*
G37*
%LPD*%
%LPC*%
G36*
X325739Y844009D02*
X325739Y844009D01*
X322098Y845517D01*
X319311Y848304D01*
X317803Y851945D01*
X317803Y855887D01*
X319311Y859528D01*
X322098Y862315D01*
X325739Y863823D01*
X329681Y863823D01*
X333322Y862315D01*
X336109Y859528D01*
X337617Y855887D01*
X337617Y851945D01*
X336109Y848304D01*
X333322Y845517D01*
X329681Y844009D01*
X325739Y844009D01*
G37*
%LPD*%
%LPC*%
G36*
X36555Y396520D02*
X36555Y396520D01*
X32960Y398009D01*
X30209Y400760D01*
X28720Y404355D01*
X28720Y408245D01*
X30209Y411840D01*
X32960Y414591D01*
X36555Y416080D01*
X40445Y416080D01*
X44040Y414591D01*
X46791Y411840D01*
X48280Y408245D01*
X48280Y404355D01*
X46791Y400760D01*
X44040Y398009D01*
X40445Y396520D01*
X36555Y396520D01*
G37*
%LPD*%
%LPC*%
G36*
X144355Y40120D02*
X144355Y40120D01*
X140760Y41609D01*
X138009Y44360D01*
X136520Y47955D01*
X136520Y51845D01*
X138009Y55440D01*
X140760Y58191D01*
X144355Y59680D01*
X148245Y59680D01*
X151840Y58191D01*
X154591Y55440D01*
X156080Y51845D01*
X156080Y47955D01*
X154591Y44360D01*
X151840Y41609D01*
X148245Y40120D01*
X144355Y40120D01*
G37*
%LPD*%
%LPC*%
G36*
X516732Y425409D02*
X516732Y425409D01*
X513464Y426763D01*
X510963Y429264D01*
X509609Y432532D01*
X509609Y436068D01*
X510963Y439336D01*
X513464Y441837D01*
X516732Y443191D01*
X520268Y443191D01*
X523536Y441837D01*
X526037Y439336D01*
X527391Y436068D01*
X527391Y432532D01*
X526037Y429264D01*
X523536Y426763D01*
X520268Y425409D01*
X516732Y425409D01*
G37*
%LPD*%
%LPC*%
G36*
X542132Y425409D02*
X542132Y425409D01*
X538864Y426763D01*
X536363Y429264D01*
X535009Y432532D01*
X535009Y436068D01*
X536363Y439336D01*
X538864Y441837D01*
X542132Y443191D01*
X545668Y443191D01*
X548936Y441837D01*
X551437Y439336D01*
X552791Y436068D01*
X552791Y432532D01*
X551437Y429264D01*
X548936Y426763D01*
X545668Y425409D01*
X542132Y425409D01*
G37*
%LPD*%
%LPC*%
G36*
X389732Y425409D02*
X389732Y425409D01*
X386464Y426763D01*
X383963Y429264D01*
X382609Y432532D01*
X382609Y436068D01*
X383963Y439336D01*
X386464Y441837D01*
X389732Y443191D01*
X393268Y443191D01*
X396536Y441837D01*
X399037Y439336D01*
X400391Y436068D01*
X400391Y432532D01*
X399037Y429264D01*
X396536Y426763D01*
X393268Y425409D01*
X389732Y425409D01*
G37*
%LPD*%
%LPC*%
G36*
X237332Y425409D02*
X237332Y425409D01*
X234064Y426763D01*
X231563Y429264D01*
X230209Y432532D01*
X230209Y436068D01*
X231563Y439336D01*
X234064Y441837D01*
X237332Y443191D01*
X240868Y443191D01*
X244136Y441837D01*
X246637Y439336D01*
X247991Y436068D01*
X247991Y432532D01*
X246637Y429264D01*
X244136Y426763D01*
X240868Y425409D01*
X237332Y425409D01*
G37*
%LPD*%
%LPC*%
G36*
X491332Y425409D02*
X491332Y425409D01*
X488064Y426763D01*
X485563Y429264D01*
X484209Y432532D01*
X484209Y436068D01*
X485563Y439336D01*
X488064Y441837D01*
X491332Y443191D01*
X494868Y443191D01*
X498136Y441837D01*
X500637Y439336D01*
X501991Y436068D01*
X501991Y432532D01*
X500637Y429264D01*
X498136Y426763D01*
X494868Y425409D01*
X491332Y425409D01*
G37*
%LPD*%
%LPC*%
G36*
X516732Y577809D02*
X516732Y577809D01*
X513464Y579163D01*
X510963Y581664D01*
X509609Y584932D01*
X509609Y588468D01*
X510963Y591736D01*
X513464Y594237D01*
X516732Y595591D01*
X520268Y595591D01*
X523536Y594237D01*
X526037Y591736D01*
X527391Y588468D01*
X527391Y584932D01*
X526037Y581664D01*
X523536Y579163D01*
X520268Y577809D01*
X516732Y577809D01*
G37*
%LPD*%
%LPC*%
G36*
X288132Y577809D02*
X288132Y577809D01*
X284864Y579163D01*
X282363Y581664D01*
X281009Y584932D01*
X281009Y588468D01*
X282363Y591736D01*
X284864Y594237D01*
X288132Y595591D01*
X291668Y595591D01*
X294936Y594237D01*
X297437Y591736D01*
X298791Y588468D01*
X298791Y584932D01*
X297437Y581664D01*
X294936Y579163D01*
X291668Y577809D01*
X288132Y577809D01*
G37*
%LPD*%
%LPC*%
G36*
X211932Y577809D02*
X211932Y577809D01*
X208664Y579163D01*
X206163Y581664D01*
X204809Y584932D01*
X204809Y588468D01*
X206163Y591736D01*
X208664Y594237D01*
X211932Y595591D01*
X215468Y595591D01*
X218736Y594237D01*
X221237Y591736D01*
X222591Y588468D01*
X222591Y584932D01*
X221237Y581664D01*
X218736Y579163D01*
X215468Y577809D01*
X211932Y577809D01*
G37*
%LPD*%
%LPC*%
G36*
X338932Y577809D02*
X338932Y577809D01*
X335664Y579163D01*
X333163Y581664D01*
X331809Y584932D01*
X331809Y588468D01*
X333163Y591736D01*
X335664Y594237D01*
X338932Y595591D01*
X342468Y595591D01*
X345736Y594237D01*
X348237Y591736D01*
X349591Y588468D01*
X349591Y584932D01*
X348237Y581664D01*
X345736Y579163D01*
X342468Y577809D01*
X338932Y577809D01*
G37*
%LPD*%
%LPC*%
G36*
X313532Y577809D02*
X313532Y577809D01*
X310264Y579163D01*
X307763Y581664D01*
X306409Y584932D01*
X306409Y588468D01*
X307763Y591736D01*
X310264Y594237D01*
X313532Y595591D01*
X317068Y595591D01*
X320336Y594237D01*
X322837Y591736D01*
X324191Y588468D01*
X324191Y584932D01*
X322837Y581664D01*
X320336Y579163D01*
X317068Y577809D01*
X313532Y577809D01*
G37*
%LPD*%
%LPC*%
G36*
X415132Y577809D02*
X415132Y577809D01*
X411864Y579163D01*
X409363Y581664D01*
X408009Y584932D01*
X408009Y588468D01*
X409363Y591736D01*
X411864Y594237D01*
X415132Y595591D01*
X418668Y595591D01*
X421936Y594237D01*
X424437Y591736D01*
X425791Y588468D01*
X425791Y584932D01*
X424437Y581664D01*
X421936Y579163D01*
X418668Y577809D01*
X415132Y577809D01*
G37*
%LPD*%
%LPC*%
G36*
X237332Y577809D02*
X237332Y577809D01*
X234064Y579163D01*
X231563Y581664D01*
X230209Y584932D01*
X230209Y588468D01*
X231563Y591736D01*
X234064Y594237D01*
X237332Y595591D01*
X240868Y595591D01*
X244136Y594237D01*
X246637Y591736D01*
X247991Y588468D01*
X247991Y584932D01*
X246637Y581664D01*
X244136Y579163D01*
X240868Y577809D01*
X237332Y577809D01*
G37*
%LPD*%
%LPC*%
G36*
X465932Y577809D02*
X465932Y577809D01*
X462664Y579163D01*
X460163Y581664D01*
X458809Y584932D01*
X458809Y588468D01*
X460163Y591736D01*
X462664Y594237D01*
X465932Y595591D01*
X469468Y595591D01*
X472736Y594237D01*
X475237Y591736D01*
X476591Y588468D01*
X476591Y584932D01*
X475237Y581664D01*
X472736Y579163D01*
X469468Y577809D01*
X465932Y577809D01*
G37*
%LPD*%
%LPC*%
G36*
X440532Y577809D02*
X440532Y577809D01*
X437264Y579163D01*
X434763Y581664D01*
X433409Y584932D01*
X433409Y588468D01*
X434763Y591736D01*
X437264Y594237D01*
X440532Y595591D01*
X444068Y595591D01*
X447336Y594237D01*
X449837Y591736D01*
X451191Y588468D01*
X451191Y584932D01*
X449837Y581664D01*
X447336Y579163D01*
X444068Y577809D01*
X440532Y577809D01*
G37*
%LPD*%
%LPC*%
G36*
X211932Y476209D02*
X211932Y476209D01*
X208664Y477563D01*
X206163Y480064D01*
X204809Y483332D01*
X204809Y486868D01*
X206163Y490136D01*
X208664Y492637D01*
X211932Y493991D01*
X215468Y493991D01*
X218736Y492637D01*
X221237Y490136D01*
X222591Y486868D01*
X222591Y483332D01*
X221237Y480064D01*
X218736Y477563D01*
X215468Y476209D01*
X211932Y476209D01*
G37*
%LPD*%
%LPC*%
G36*
X211932Y450809D02*
X211932Y450809D01*
X208664Y452163D01*
X206163Y454664D01*
X204809Y457932D01*
X204809Y461468D01*
X206163Y464736D01*
X208664Y467237D01*
X211932Y468591D01*
X215468Y468591D01*
X218736Y467237D01*
X221237Y464736D01*
X222591Y461468D01*
X222591Y457932D01*
X221237Y454664D01*
X218736Y452163D01*
X215468Y450809D01*
X211932Y450809D01*
G37*
%LPD*%
%LPC*%
G36*
X211932Y425409D02*
X211932Y425409D01*
X208664Y426763D01*
X206163Y429264D01*
X204809Y432532D01*
X204809Y436068D01*
X206163Y439336D01*
X208664Y441837D01*
X211932Y443191D01*
X215468Y443191D01*
X218736Y441837D01*
X221237Y439336D01*
X222591Y436068D01*
X222591Y432532D01*
X221237Y429264D01*
X218736Y426763D01*
X215468Y425409D01*
X211932Y425409D01*
G37*
%LPD*%
%LPC*%
G36*
X465932Y425409D02*
X465932Y425409D01*
X462664Y426763D01*
X460163Y429264D01*
X458809Y432532D01*
X458809Y436068D01*
X460163Y439336D01*
X462664Y441837D01*
X465932Y443191D01*
X469468Y443191D01*
X472736Y441837D01*
X475237Y439336D01*
X476591Y436068D01*
X476591Y432532D01*
X475237Y429264D01*
X472736Y426763D01*
X469468Y425409D01*
X465932Y425409D01*
G37*
%LPD*%
%LPC*%
G36*
X44823Y787623D02*
X44823Y787623D01*
X44823Y797531D01*
X53090Y797531D01*
X54867Y797249D01*
X56578Y796693D01*
X58181Y795876D01*
X59637Y794819D01*
X60909Y793547D01*
X61966Y792091D01*
X62783Y790488D01*
X63339Y788777D01*
X63522Y787623D01*
X44823Y787623D01*
G37*
%LPD*%
%LPC*%
G36*
X429723Y787623D02*
X429723Y787623D01*
X429723Y797531D01*
X437990Y797531D01*
X439767Y797249D01*
X441478Y796693D01*
X443081Y795876D01*
X444537Y794819D01*
X445809Y793547D01*
X446866Y792091D01*
X447683Y790488D01*
X448239Y788777D01*
X448422Y787623D01*
X429723Y787623D01*
G37*
%LPD*%
%LPC*%
G36*
X407978Y787623D02*
X407978Y787623D01*
X408161Y788777D01*
X408717Y790488D01*
X409534Y792091D01*
X410591Y793547D01*
X411863Y794819D01*
X413319Y795876D01*
X414922Y796693D01*
X416633Y797249D01*
X418410Y797531D01*
X426677Y797531D01*
X426677Y787623D01*
X407978Y787623D01*
G37*
%LPD*%
%LPC*%
G36*
X23078Y787623D02*
X23078Y787623D01*
X23261Y788777D01*
X23817Y790488D01*
X24634Y792091D01*
X25691Y793547D01*
X26963Y794819D01*
X28419Y795876D01*
X30022Y796693D01*
X31733Y797249D01*
X33510Y797531D01*
X41777Y797531D01*
X41777Y787623D01*
X23078Y787623D01*
G37*
%LPD*%
%LPC*%
G36*
X44823Y774669D02*
X44823Y774669D01*
X44823Y784577D01*
X63522Y784577D01*
X63339Y783423D01*
X62783Y781712D01*
X61966Y780109D01*
X60909Y778653D01*
X59637Y777381D01*
X58181Y776324D01*
X56578Y775507D01*
X54867Y774951D01*
X53090Y774669D01*
X44823Y774669D01*
G37*
%LPD*%
%LPC*%
G36*
X429723Y774669D02*
X429723Y774669D01*
X429723Y784577D01*
X448422Y784577D01*
X448239Y783423D01*
X447683Y781712D01*
X446866Y780109D01*
X445809Y778653D01*
X444537Y777381D01*
X443081Y776324D01*
X441478Y775507D01*
X439767Y774951D01*
X437990Y774669D01*
X429723Y774669D01*
G37*
%LPD*%
%LPC*%
G36*
X33510Y774669D02*
X33510Y774669D01*
X31733Y774951D01*
X30022Y775507D01*
X28419Y776324D01*
X26963Y777381D01*
X25691Y778653D01*
X24634Y780109D01*
X23817Y781712D01*
X23261Y783423D01*
X23078Y784577D01*
X41777Y784577D01*
X41777Y774669D01*
X33510Y774669D01*
G37*
%LPD*%
%LPC*%
G36*
X418410Y774669D02*
X418410Y774669D01*
X416633Y774951D01*
X414922Y775507D01*
X413319Y776324D01*
X411863Y777381D01*
X410591Y778653D01*
X409534Y780109D01*
X408717Y781712D01*
X408161Y783423D01*
X407978Y784577D01*
X426677Y784577D01*
X426677Y774669D01*
X418410Y774669D01*
G37*
%LPD*%
%LPC*%
G36*
X536523Y332723D02*
X536523Y332723D01*
X536523Y345241D01*
X540816Y345241D01*
X549041Y337016D01*
X549041Y332723D01*
X536523Y332723D01*
G37*
%LPD*%
%LPC*%
G36*
X536523Y317159D02*
X536523Y317159D01*
X536523Y329677D01*
X549041Y329677D01*
X549041Y325384D01*
X540816Y317159D01*
X536523Y317159D01*
G37*
%LPD*%
%LPC*%
G36*
X520959Y332723D02*
X520959Y332723D01*
X520959Y337016D01*
X529184Y345241D01*
X533477Y345241D01*
X533477Y332723D01*
X520959Y332723D01*
G37*
%LPD*%
%LPC*%
G36*
X529184Y317159D02*
X529184Y317159D01*
X520959Y325384D01*
X520959Y329677D01*
X533477Y329677D01*
X533477Y317159D01*
X529184Y317159D01*
G37*
%LPD*%
%LPC*%
G36*
X241523Y241423D02*
X241523Y241423D01*
X241523Y250061D01*
X248420Y250061D01*
X249999Y249811D01*
X251520Y249316D01*
X252945Y248590D01*
X254239Y247650D01*
X255370Y246519D01*
X256310Y245225D01*
X257036Y243800D01*
X257531Y242279D01*
X257666Y241423D01*
X241523Y241423D01*
G37*
%LPD*%
%LPC*%
G36*
X332223Y132723D02*
X332223Y132723D01*
X332223Y141361D01*
X339120Y141361D01*
X340699Y141111D01*
X342220Y140616D01*
X343645Y139890D01*
X344939Y138950D01*
X346070Y137819D01*
X347010Y136525D01*
X347736Y135100D01*
X348231Y133579D01*
X348366Y132723D01*
X332223Y132723D01*
G37*
%LPD*%
%LPC*%
G36*
X239023Y107823D02*
X239023Y107823D01*
X239023Y116461D01*
X245920Y116461D01*
X247499Y116211D01*
X249020Y115716D01*
X250445Y114990D01*
X251739Y114050D01*
X252870Y112919D01*
X253810Y111625D01*
X254536Y110200D01*
X255031Y108679D01*
X255166Y107823D01*
X239023Y107823D01*
G37*
%LPD*%
%LPC*%
G36*
X331523Y293423D02*
X331523Y293423D01*
X331523Y302061D01*
X338420Y302061D01*
X339999Y301811D01*
X341520Y301316D01*
X342945Y300590D01*
X344239Y299650D01*
X345370Y298519D01*
X346310Y297225D01*
X347036Y295800D01*
X347531Y294279D01*
X347666Y293423D01*
X331523Y293423D01*
G37*
%LPD*%
%LPC*%
G36*
X222334Y241423D02*
X222334Y241423D01*
X222469Y242279D01*
X222964Y243800D01*
X223690Y245225D01*
X224630Y246519D01*
X225761Y247650D01*
X227055Y248590D01*
X228480Y249316D01*
X230001Y249811D01*
X231580Y250061D01*
X238477Y250061D01*
X238477Y241423D01*
X222334Y241423D01*
G37*
%LPD*%
%LPC*%
G36*
X219834Y107823D02*
X219834Y107823D01*
X219969Y108679D01*
X220464Y110200D01*
X221190Y111625D01*
X222130Y112919D01*
X223261Y114050D01*
X224555Y114990D01*
X225980Y115716D01*
X227501Y116211D01*
X229080Y116461D01*
X235977Y116461D01*
X235977Y107823D01*
X219834Y107823D01*
G37*
%LPD*%
%LPC*%
G36*
X313034Y132723D02*
X313034Y132723D01*
X313169Y133579D01*
X313664Y135100D01*
X314390Y136525D01*
X315330Y137819D01*
X316461Y138950D01*
X317755Y139890D01*
X319180Y140616D01*
X320701Y141111D01*
X322280Y141361D01*
X329177Y141361D01*
X329177Y132723D01*
X313034Y132723D01*
G37*
%LPD*%
%LPC*%
G36*
X312334Y293423D02*
X312334Y293423D01*
X312469Y294279D01*
X312964Y295800D01*
X313690Y297225D01*
X314630Y298519D01*
X315761Y299650D01*
X317055Y300590D01*
X318480Y301316D01*
X320001Y301811D01*
X321580Y302061D01*
X328477Y302061D01*
X328477Y293423D01*
X312334Y293423D01*
G37*
%LPD*%
%LPC*%
G36*
X241523Y229739D02*
X241523Y229739D01*
X241523Y238377D01*
X257666Y238377D01*
X257531Y237521D01*
X257036Y236000D01*
X256310Y234575D01*
X255370Y233281D01*
X254239Y232150D01*
X252945Y231210D01*
X251520Y230484D01*
X249999Y229989D01*
X248420Y229739D01*
X241523Y229739D01*
G37*
%LPD*%
%LPC*%
G36*
X332223Y121039D02*
X332223Y121039D01*
X332223Y129677D01*
X348366Y129677D01*
X348231Y128821D01*
X347736Y127300D01*
X347010Y125875D01*
X346070Y124581D01*
X344939Y123450D01*
X343645Y122510D01*
X342220Y121784D01*
X340699Y121289D01*
X339120Y121039D01*
X332223Y121039D01*
G37*
%LPD*%
%LPC*%
G36*
X239023Y96139D02*
X239023Y96139D01*
X239023Y104777D01*
X255166Y104777D01*
X255031Y103921D01*
X254536Y102400D01*
X253810Y100975D01*
X252870Y99681D01*
X251739Y98550D01*
X250445Y97610D01*
X249020Y96884D01*
X247499Y96389D01*
X245920Y96139D01*
X239023Y96139D01*
G37*
%LPD*%
%LPC*%
G36*
X331523Y281739D02*
X331523Y281739D01*
X331523Y290377D01*
X347666Y290377D01*
X347531Y289521D01*
X347036Y288000D01*
X346310Y286575D01*
X345370Y285281D01*
X344239Y284150D01*
X342945Y283210D01*
X341520Y282484D01*
X339999Y281989D01*
X338420Y281739D01*
X331523Y281739D01*
G37*
%LPD*%
%LPC*%
G36*
X321580Y281739D02*
X321580Y281739D01*
X320001Y281989D01*
X318480Y282484D01*
X317055Y283210D01*
X315761Y284150D01*
X314630Y285281D01*
X313690Y286575D01*
X312964Y288000D01*
X312469Y289521D01*
X312334Y290377D01*
X328477Y290377D01*
X328477Y281739D01*
X321580Y281739D01*
G37*
%LPD*%
%LPC*%
G36*
X229080Y96139D02*
X229080Y96139D01*
X227501Y96389D01*
X225980Y96884D01*
X224555Y97610D01*
X223261Y98550D01*
X222130Y99681D01*
X221190Y100975D01*
X220464Y102400D01*
X219969Y103921D01*
X219834Y104777D01*
X235977Y104777D01*
X235977Y96139D01*
X229080Y96139D01*
G37*
%LPD*%
%LPC*%
G36*
X322280Y121039D02*
X322280Y121039D01*
X320701Y121289D01*
X319180Y121784D01*
X317755Y122510D01*
X316461Y123450D01*
X315330Y124581D01*
X314390Y125875D01*
X313664Y127300D01*
X313169Y128821D01*
X313034Y129677D01*
X329177Y129677D01*
X329177Y121039D01*
X322280Y121039D01*
G37*
%LPD*%
%LPC*%
G36*
X231580Y229739D02*
X231580Y229739D01*
X230001Y229989D01*
X228480Y230484D01*
X227055Y231210D01*
X225761Y232150D01*
X224630Y233281D01*
X223690Y234575D01*
X222964Y236000D01*
X222469Y237521D01*
X222334Y238377D01*
X238477Y238377D01*
X238477Y229739D01*
X231580Y229739D01*
G37*
%LPD*%
%LPC*%
G36*
X115323Y287723D02*
X115323Y287723D01*
X115323Y298046D01*
X116596Y297845D01*
X118383Y297264D01*
X120057Y296411D01*
X121578Y295306D01*
X122906Y293978D01*
X124011Y292457D01*
X124864Y290783D01*
X125445Y288996D01*
X125646Y287723D01*
X115323Y287723D01*
G37*
%LPD*%
%LPC*%
G36*
X465223Y249723D02*
X465223Y249723D01*
X465223Y260046D01*
X466496Y259845D01*
X468283Y259264D01*
X469957Y258411D01*
X471478Y257306D01*
X472806Y255978D01*
X473911Y254457D01*
X474764Y252783D01*
X475345Y250996D01*
X475546Y249723D01*
X465223Y249723D01*
G37*
%LPD*%
%LPC*%
G36*
X399223Y149723D02*
X399223Y149723D01*
X399223Y160046D01*
X400496Y159845D01*
X402283Y159264D01*
X403957Y158411D01*
X405478Y157306D01*
X406806Y155978D01*
X407911Y154457D01*
X408764Y152783D01*
X409345Y150996D01*
X409546Y149723D01*
X399223Y149723D01*
G37*
%LPD*%
%LPC*%
G36*
X375723Y32723D02*
X375723Y32723D01*
X375723Y43046D01*
X376996Y42845D01*
X378783Y42264D01*
X380457Y41411D01*
X381978Y40306D01*
X383306Y38978D01*
X384411Y37457D01*
X385264Y35783D01*
X385845Y33996D01*
X386046Y32723D01*
X375723Y32723D01*
G37*
%LPD*%
%LPC*%
G36*
X111223Y153323D02*
X111223Y153323D01*
X111223Y163646D01*
X112496Y163445D01*
X114283Y162864D01*
X115957Y162011D01*
X117478Y160906D01*
X118806Y159578D01*
X119911Y158057D01*
X120764Y156383D01*
X121345Y154596D01*
X121546Y153323D01*
X111223Y153323D01*
G37*
%LPD*%
%LPC*%
G36*
X150223Y848923D02*
X150223Y848923D01*
X150223Y859246D01*
X151496Y859045D01*
X153283Y858464D01*
X154957Y857611D01*
X156478Y856506D01*
X157806Y855178D01*
X158911Y853657D01*
X159764Y851983D01*
X160345Y850196D01*
X160546Y848923D01*
X150223Y848923D01*
G37*
%LPD*%
%LPC*%
G36*
X199523Y30323D02*
X199523Y30323D01*
X199523Y40646D01*
X200796Y40445D01*
X202583Y39864D01*
X204257Y39011D01*
X205778Y37906D01*
X207106Y36578D01*
X208211Y35057D01*
X209064Y33383D01*
X209645Y31596D01*
X209846Y30323D01*
X199523Y30323D01*
G37*
%LPD*%
%LPC*%
G36*
X430723Y851523D02*
X430723Y851523D01*
X430723Y861846D01*
X431996Y861645D01*
X433783Y861064D01*
X435457Y860211D01*
X436978Y859106D01*
X438306Y857778D01*
X439411Y856257D01*
X440264Y854583D01*
X440845Y852796D01*
X441046Y851523D01*
X430723Y851523D01*
G37*
%LPD*%
%LPC*%
G36*
X101954Y287723D02*
X101954Y287723D01*
X102155Y288996D01*
X102736Y290783D01*
X103589Y292457D01*
X104694Y293978D01*
X106022Y295306D01*
X107543Y296411D01*
X109217Y297264D01*
X111004Y297845D01*
X112277Y298046D01*
X112277Y287723D01*
X101954Y287723D01*
G37*
%LPD*%
%LPC*%
G36*
X150223Y845877D02*
X150223Y845877D01*
X160546Y845877D01*
X160345Y844604D01*
X159764Y842817D01*
X158911Y841143D01*
X157806Y839622D01*
X156478Y838294D01*
X154957Y837189D01*
X153283Y836336D01*
X151496Y835755D01*
X150223Y835554D01*
X150223Y845877D01*
G37*
%LPD*%
%LPC*%
G36*
X451854Y249723D02*
X451854Y249723D01*
X452055Y250996D01*
X452636Y252783D01*
X453489Y254457D01*
X454594Y255978D01*
X455922Y257306D01*
X457443Y258411D01*
X459117Y259264D01*
X460904Y259845D01*
X462177Y260046D01*
X462177Y249723D01*
X451854Y249723D01*
G37*
%LPD*%
%LPC*%
G36*
X115323Y284677D02*
X115323Y284677D01*
X125646Y284677D01*
X125445Y283404D01*
X124864Y281617D01*
X124011Y279943D01*
X122906Y278422D01*
X121578Y277094D01*
X120057Y275989D01*
X118383Y275136D01*
X116596Y274555D01*
X115323Y274354D01*
X115323Y284677D01*
G37*
%LPD*%
%LPC*%
G36*
X97854Y153323D02*
X97854Y153323D01*
X98055Y154596D01*
X98636Y156383D01*
X99489Y158057D01*
X100594Y159578D01*
X101922Y160906D01*
X103443Y162011D01*
X105117Y162864D01*
X106904Y163445D01*
X108177Y163646D01*
X108177Y153323D01*
X97854Y153323D01*
G37*
%LPD*%
%LPC*%
G36*
X465223Y246677D02*
X465223Y246677D01*
X475546Y246677D01*
X475345Y245404D01*
X474764Y243617D01*
X473911Y241943D01*
X472806Y240422D01*
X471478Y239094D01*
X469957Y237989D01*
X468283Y237136D01*
X466496Y236555D01*
X465223Y236354D01*
X465223Y246677D01*
G37*
%LPD*%
%LPC*%
G36*
X362354Y32723D02*
X362354Y32723D01*
X362555Y33996D01*
X363136Y35783D01*
X363989Y37457D01*
X365094Y38978D01*
X366422Y40306D01*
X367943Y41411D01*
X369617Y42264D01*
X371404Y42845D01*
X372677Y43046D01*
X372677Y32723D01*
X362354Y32723D01*
G37*
%LPD*%
%LPC*%
G36*
X417354Y851523D02*
X417354Y851523D01*
X417555Y852796D01*
X418136Y854583D01*
X418989Y856257D01*
X420094Y857778D01*
X421422Y859106D01*
X422943Y860211D01*
X424617Y861064D01*
X426404Y861645D01*
X427677Y861846D01*
X427677Y851523D01*
X417354Y851523D01*
G37*
%LPD*%
%LPC*%
G36*
X136854Y848923D02*
X136854Y848923D01*
X137055Y850196D01*
X137636Y851983D01*
X138489Y853657D01*
X139594Y855178D01*
X140922Y856506D01*
X142443Y857611D01*
X144117Y858464D01*
X145904Y859045D01*
X147177Y859246D01*
X147177Y848923D01*
X136854Y848923D01*
G37*
%LPD*%
%LPC*%
G36*
X385854Y149723D02*
X385854Y149723D01*
X386055Y150996D01*
X386636Y152783D01*
X387489Y154457D01*
X388594Y155978D01*
X389922Y157306D01*
X391443Y158411D01*
X393117Y159264D01*
X394904Y159845D01*
X396177Y160046D01*
X396177Y149723D01*
X385854Y149723D01*
G37*
%LPD*%
%LPC*%
G36*
X430723Y848477D02*
X430723Y848477D01*
X441046Y848477D01*
X440845Y847204D01*
X440264Y845417D01*
X439411Y843743D01*
X438306Y842222D01*
X436978Y840894D01*
X435457Y839789D01*
X433783Y838936D01*
X431996Y838355D01*
X430723Y838154D01*
X430723Y848477D01*
G37*
%LPD*%
%LPC*%
G36*
X186154Y30323D02*
X186154Y30323D01*
X186355Y31596D01*
X186936Y33383D01*
X187789Y35057D01*
X188894Y36578D01*
X190222Y37906D01*
X191743Y39011D01*
X193417Y39864D01*
X195204Y40445D01*
X196477Y40646D01*
X196477Y30323D01*
X186154Y30323D01*
G37*
%LPD*%
%LPC*%
G36*
X111223Y150277D02*
X111223Y150277D01*
X121546Y150277D01*
X121345Y149004D01*
X120764Y147217D01*
X119911Y145543D01*
X118806Y144022D01*
X117478Y142694D01*
X115957Y141589D01*
X114283Y140736D01*
X112496Y140155D01*
X111223Y139954D01*
X111223Y150277D01*
G37*
%LPD*%
%LPC*%
G36*
X399223Y146677D02*
X399223Y146677D01*
X409546Y146677D01*
X409345Y145404D01*
X408764Y143617D01*
X407911Y141943D01*
X406806Y140422D01*
X405478Y139094D01*
X403957Y137989D01*
X402283Y137136D01*
X400496Y136555D01*
X399223Y136354D01*
X399223Y146677D01*
G37*
%LPD*%
%LPC*%
G36*
X375723Y29677D02*
X375723Y29677D01*
X386046Y29677D01*
X385845Y28404D01*
X385264Y26617D01*
X384411Y24943D01*
X383306Y23422D01*
X381978Y22094D01*
X380457Y20989D01*
X378783Y20136D01*
X376996Y19555D01*
X375723Y19354D01*
X375723Y29677D01*
G37*
%LPD*%
%LPC*%
G36*
X199523Y27277D02*
X199523Y27277D01*
X209846Y27277D01*
X209645Y26004D01*
X209064Y24217D01*
X208211Y22543D01*
X207106Y21022D01*
X205778Y19694D01*
X204257Y18589D01*
X202583Y17736D01*
X200796Y17155D01*
X199523Y16954D01*
X199523Y27277D01*
G37*
%LPD*%
%LPC*%
G36*
X394904Y136555D02*
X394904Y136555D01*
X393117Y137136D01*
X391443Y137989D01*
X389922Y139094D01*
X388594Y140422D01*
X387489Y141943D01*
X386636Y143617D01*
X386055Y145404D01*
X385854Y146677D01*
X396177Y146677D01*
X396177Y136354D01*
X394904Y136555D01*
G37*
%LPD*%
%LPC*%
G36*
X195204Y17155D02*
X195204Y17155D01*
X193417Y17736D01*
X191743Y18589D01*
X190222Y19694D01*
X188894Y21022D01*
X187789Y22543D01*
X186936Y24217D01*
X186355Y26004D01*
X186154Y27277D01*
X196477Y27277D01*
X196477Y16954D01*
X195204Y17155D01*
G37*
%LPD*%
%LPC*%
G36*
X106904Y140155D02*
X106904Y140155D01*
X105117Y140736D01*
X103443Y141589D01*
X101922Y142694D01*
X100594Y144022D01*
X99489Y145543D01*
X98636Y147217D01*
X98055Y149004D01*
X97854Y150277D01*
X108177Y150277D01*
X108177Y139954D01*
X106904Y140155D01*
G37*
%LPD*%
%LPC*%
G36*
X371404Y19555D02*
X371404Y19555D01*
X369617Y20136D01*
X367943Y20989D01*
X366422Y22094D01*
X365094Y23422D01*
X363989Y24943D01*
X363136Y26617D01*
X362555Y28404D01*
X362354Y29677D01*
X372677Y29677D01*
X372677Y19354D01*
X371404Y19555D01*
G37*
%LPD*%
%LPC*%
G36*
X426404Y838355D02*
X426404Y838355D01*
X424617Y838936D01*
X422943Y839789D01*
X421422Y840894D01*
X420094Y842222D01*
X418989Y843743D01*
X418136Y845417D01*
X417555Y847204D01*
X417354Y848477D01*
X427677Y848477D01*
X427677Y838154D01*
X426404Y838355D01*
G37*
%LPD*%
%LPC*%
G36*
X460904Y236555D02*
X460904Y236555D01*
X459117Y237136D01*
X457443Y237989D01*
X455922Y239094D01*
X454594Y240422D01*
X453489Y241943D01*
X452636Y243617D01*
X452055Y245404D01*
X451854Y246677D01*
X462177Y246677D01*
X462177Y236354D01*
X460904Y236555D01*
G37*
%LPD*%
%LPC*%
G36*
X111004Y274555D02*
X111004Y274555D01*
X109217Y275136D01*
X107543Y275989D01*
X106022Y277094D01*
X104694Y278422D01*
X103589Y279943D01*
X102736Y281617D01*
X102155Y283404D01*
X101954Y284677D01*
X112277Y284677D01*
X112277Y274354D01*
X111004Y274555D01*
G37*
%LPD*%
%LPC*%
G36*
X145904Y835755D02*
X145904Y835755D01*
X144117Y836336D01*
X142443Y837189D01*
X140922Y838294D01*
X139594Y839622D01*
X138489Y841143D01*
X137636Y842817D01*
X137055Y844604D01*
X136854Y845877D01*
X147177Y845877D01*
X147177Y835554D01*
X145904Y835755D01*
G37*
%LPD*%
%LPC*%
G36*
X65423Y407823D02*
X65423Y407823D01*
X65423Y416989D01*
X66428Y416830D01*
X68044Y416305D01*
X69558Y415533D01*
X70933Y414534D01*
X72134Y413333D01*
X73133Y411958D01*
X73905Y410444D01*
X74430Y408828D01*
X74589Y407823D01*
X65423Y407823D01*
G37*
%LPD*%
%LPC*%
G36*
X147823Y26023D02*
X147823Y26023D01*
X147823Y35189D01*
X148828Y35030D01*
X150444Y34505D01*
X151958Y33733D01*
X153333Y32734D01*
X154534Y31533D01*
X155533Y30158D01*
X156305Y28644D01*
X156830Y27028D01*
X156989Y26023D01*
X147823Y26023D01*
G37*
%LPD*%
%LPC*%
G36*
X437823Y26823D02*
X437823Y26823D01*
X437823Y35989D01*
X438828Y35830D01*
X440444Y35305D01*
X441958Y34533D01*
X443333Y33534D01*
X444534Y32333D01*
X445533Y30958D01*
X446305Y29444D01*
X446830Y27828D01*
X446989Y26823D01*
X437823Y26823D01*
G37*
%LPD*%
%LPC*%
G36*
X65423Y404777D02*
X65423Y404777D01*
X74589Y404777D01*
X74430Y403772D01*
X73905Y402156D01*
X73133Y400642D01*
X72134Y399267D01*
X70933Y398066D01*
X69558Y397067D01*
X68044Y396295D01*
X66428Y395770D01*
X65423Y395611D01*
X65423Y404777D01*
G37*
%LPD*%
%LPC*%
G36*
X437823Y23777D02*
X437823Y23777D01*
X446989Y23777D01*
X446830Y22772D01*
X446305Y21156D01*
X445533Y19642D01*
X444534Y18267D01*
X443333Y17066D01*
X441958Y16067D01*
X440444Y15295D01*
X438828Y14770D01*
X437823Y14611D01*
X437823Y23777D01*
G37*
%LPD*%
%LPC*%
G36*
X53211Y407823D02*
X53211Y407823D01*
X53370Y408828D01*
X53895Y410444D01*
X54667Y411958D01*
X55666Y413333D01*
X56867Y414534D01*
X58242Y415533D01*
X59756Y416305D01*
X61372Y416830D01*
X62377Y416989D01*
X62377Y407823D01*
X53211Y407823D01*
G37*
%LPD*%
%LPC*%
G36*
X135611Y26023D02*
X135611Y26023D01*
X135770Y27028D01*
X136295Y28644D01*
X137067Y30158D01*
X138066Y31533D01*
X139267Y32734D01*
X140642Y33733D01*
X142156Y34505D01*
X143772Y35030D01*
X144777Y35189D01*
X144777Y26023D01*
X135611Y26023D01*
G37*
%LPD*%
%LPC*%
G36*
X425611Y26823D02*
X425611Y26823D01*
X425770Y27828D01*
X426295Y29444D01*
X427067Y30958D01*
X428066Y32333D01*
X429267Y33534D01*
X430642Y34533D01*
X432156Y35305D01*
X433772Y35830D01*
X434777Y35989D01*
X434777Y26823D01*
X425611Y26823D01*
G37*
%LPD*%
%LPC*%
G36*
X147823Y22977D02*
X147823Y22977D01*
X156989Y22977D01*
X156830Y21972D01*
X156305Y20356D01*
X155533Y18842D01*
X154534Y17467D01*
X153333Y16266D01*
X151958Y15267D01*
X150444Y14495D01*
X148828Y13970D01*
X147823Y13811D01*
X147823Y22977D01*
G37*
%LPD*%
%LPC*%
G36*
X61372Y395770D02*
X61372Y395770D01*
X59756Y396295D01*
X58242Y397067D01*
X56867Y398066D01*
X55666Y399267D01*
X54667Y400642D01*
X53895Y402156D01*
X53370Y403772D01*
X53211Y404777D01*
X62377Y404777D01*
X62377Y395611D01*
X61372Y395770D01*
G37*
%LPD*%
%LPC*%
G36*
X143772Y13970D02*
X143772Y13970D01*
X142156Y14495D01*
X140642Y15267D01*
X139267Y16266D01*
X138066Y17467D01*
X137067Y18842D01*
X136295Y20356D01*
X135770Y21972D01*
X135611Y22977D01*
X144777Y22977D01*
X144777Y13811D01*
X143772Y13970D01*
G37*
%LPD*%
%LPC*%
G36*
X433772Y14770D02*
X433772Y14770D01*
X432156Y15295D01*
X430642Y16067D01*
X429267Y17066D01*
X428066Y18267D01*
X427067Y19642D01*
X426295Y21156D01*
X425770Y22772D01*
X425611Y23777D01*
X434777Y23777D01*
X434777Y14611D01*
X433772Y14770D01*
G37*
%LPD*%
%LPC*%
G36*
X215223Y512023D02*
X215223Y512023D01*
X215223Y520289D01*
X216020Y520163D01*
X217503Y519681D01*
X218892Y518973D01*
X220154Y518056D01*
X221256Y516954D01*
X222173Y515692D01*
X222881Y514303D01*
X223363Y512820D01*
X223489Y512023D01*
X215223Y512023D01*
G37*
%LPD*%
%LPC*%
G36*
X545423Y588223D02*
X545423Y588223D01*
X545423Y596489D01*
X546220Y596363D01*
X547703Y595881D01*
X549092Y595173D01*
X550354Y594256D01*
X551456Y593154D01*
X552373Y591892D01*
X553081Y590503D01*
X553563Y589020D01*
X553689Y588223D01*
X545423Y588223D01*
G37*
%LPD*%
%LPC*%
G36*
X203911Y512023D02*
X203911Y512023D01*
X204037Y512820D01*
X204519Y514303D01*
X205227Y515692D01*
X206144Y516954D01*
X207246Y518056D01*
X208508Y518973D01*
X209897Y519681D01*
X211380Y520163D01*
X212177Y520289D01*
X212177Y512023D01*
X203911Y512023D01*
G37*
%LPD*%
%LPC*%
G36*
X545423Y585177D02*
X545423Y585177D01*
X553689Y585177D01*
X553563Y584380D01*
X553081Y582897D01*
X552373Y581508D01*
X551456Y580246D01*
X550354Y579144D01*
X549092Y578227D01*
X547703Y577519D01*
X546220Y577037D01*
X545423Y576911D01*
X545423Y585177D01*
G37*
%LPD*%
%LPC*%
G36*
X534111Y588223D02*
X534111Y588223D01*
X534237Y589020D01*
X534719Y590503D01*
X535427Y591892D01*
X536344Y593154D01*
X537446Y594256D01*
X538708Y595173D01*
X540097Y595881D01*
X541580Y596363D01*
X542377Y596489D01*
X542377Y588223D01*
X534111Y588223D01*
G37*
%LPD*%
%LPC*%
G36*
X541580Y577037D02*
X541580Y577037D01*
X540097Y577519D01*
X538708Y578227D01*
X537446Y579144D01*
X536344Y580246D01*
X535427Y581508D01*
X534719Y582897D01*
X534237Y584380D01*
X534111Y585177D01*
X542377Y585177D01*
X542377Y576911D01*
X541580Y577037D01*
G37*
%LPD*%
%LPC*%
G36*
X428199Y786099D02*
X428199Y786099D01*
X428199Y786101D01*
X428201Y786101D01*
X428201Y786099D01*
X428199Y786099D01*
G37*
%LPD*%
%LPC*%
G36*
X534999Y331199D02*
X534999Y331199D01*
X534999Y331201D01*
X535001Y331201D01*
X535001Y331199D01*
X534999Y331199D01*
G37*
%LPD*%
%LPC*%
G36*
X148699Y847399D02*
X148699Y847399D01*
X148699Y847401D01*
X148701Y847401D01*
X148701Y847399D01*
X148699Y847399D01*
G37*
%LPD*%
%LPC*%
G36*
X109699Y151799D02*
X109699Y151799D01*
X109699Y151801D01*
X109701Y151801D01*
X109701Y151799D01*
X109699Y151799D01*
G37*
%LPD*%
%LPC*%
G36*
X543899Y586699D02*
X543899Y586699D01*
X543899Y586701D01*
X543901Y586701D01*
X543901Y586699D01*
X543899Y586699D01*
G37*
%LPD*%
%LPC*%
G36*
X239999Y239899D02*
X239999Y239899D01*
X239999Y239901D01*
X240001Y239901D01*
X240001Y239899D01*
X239999Y239899D01*
G37*
%LPD*%
%LPC*%
G36*
X237499Y106299D02*
X237499Y106299D01*
X237499Y106301D01*
X237501Y106301D01*
X237501Y106299D01*
X237499Y106299D01*
G37*
%LPD*%
%LPC*%
G36*
X463699Y248199D02*
X463699Y248199D01*
X463699Y248201D01*
X463701Y248201D01*
X463701Y248199D01*
X463699Y248199D01*
G37*
%LPD*%
%LPC*%
G36*
X374199Y31199D02*
X374199Y31199D01*
X374199Y31201D01*
X374201Y31201D01*
X374201Y31199D01*
X374199Y31199D01*
G37*
%LPD*%
%LPC*%
G36*
X397699Y148199D02*
X397699Y148199D01*
X397699Y148201D01*
X397701Y148201D01*
X397701Y148199D01*
X397699Y148199D01*
G37*
%LPD*%
%LPC*%
G36*
X63899Y406299D02*
X63899Y406299D01*
X63899Y406301D01*
X63901Y406301D01*
X63901Y406299D01*
X63899Y406299D01*
G37*
%LPD*%
%LPC*%
G36*
X197999Y28799D02*
X197999Y28799D01*
X197999Y28801D01*
X198001Y28801D01*
X198001Y28799D01*
X197999Y28799D01*
G37*
%LPD*%
%LPC*%
G36*
X330699Y131199D02*
X330699Y131199D01*
X330699Y131201D01*
X330701Y131201D01*
X330701Y131199D01*
X330699Y131199D01*
G37*
%LPD*%
%LPC*%
G36*
X43299Y786099D02*
X43299Y786099D01*
X43299Y786101D01*
X43301Y786101D01*
X43301Y786099D01*
X43299Y786099D01*
G37*
%LPD*%
%LPC*%
G36*
X146299Y24499D02*
X146299Y24499D01*
X146299Y24501D01*
X146301Y24501D01*
X146301Y24499D01*
X146299Y24499D01*
G37*
%LPD*%
%LPC*%
G36*
X429199Y849999D02*
X429199Y849999D01*
X429199Y850001D01*
X429201Y850001D01*
X429201Y849999D01*
X429199Y849999D01*
G37*
%LPD*%
%LPC*%
G36*
X329999Y291899D02*
X329999Y291899D01*
X329999Y291901D01*
X330001Y291901D01*
X330001Y291899D01*
X329999Y291899D01*
G37*
%LPD*%
%LPC*%
G36*
X113799Y286199D02*
X113799Y286199D01*
X113799Y286201D01*
X113801Y286201D01*
X113801Y286199D01*
X113799Y286199D01*
G37*
%LPD*%
%LPC*%
G36*
X436299Y25299D02*
X436299Y25299D01*
X436299Y25301D01*
X436301Y25301D01*
X436301Y25299D01*
X436299Y25299D01*
G37*
%LPD*%
D10*
X146300Y49900D03*
X146300Y24500D03*
X436300Y50700D03*
X436300Y25300D03*
X38500Y406300D03*
X63900Y406300D03*
D11*
X323080Y105800D02*
X338320Y105800D01*
X338320Y131200D02*
X323080Y131200D01*
X323080Y156600D02*
X338320Y156600D01*
D12*
X358190Y853916D03*
D13*
X342950Y873284D03*
D12*
X327710Y853916D03*
X315010Y873284D03*
X266690Y855316D03*
D13*
X251450Y874684D03*
D12*
X236210Y855316D03*
X223510Y874684D03*
D14*
X248800Y28800D03*
X223400Y28800D03*
X198000Y28800D03*
X323400Y31200D03*
X348800Y31200D03*
X374200Y31200D03*
X97900Y847400D03*
X123300Y847400D03*
X148700Y847400D03*
D11*
X229880Y157100D02*
X245120Y157100D01*
X245120Y131700D02*
X229880Y131700D01*
X229880Y106300D02*
X245120Y106300D01*
X322380Y241100D02*
X337620Y241100D01*
X337620Y266500D02*
X322380Y266500D01*
X322380Y291900D02*
X337620Y291900D01*
X247620Y290700D02*
X232380Y290700D01*
X232380Y265300D02*
X247620Y265300D01*
X247620Y239900D02*
X232380Y239900D01*
D14*
X330100Y663600D03*
X330100Y739800D03*
X397700Y148200D03*
X473900Y148200D03*
X396100Y108200D03*
X472300Y108200D03*
X269300Y664500D03*
X269300Y740700D03*
X208700Y664100D03*
X208700Y740300D03*
X190000Y286200D03*
X113800Y286200D03*
X110900Y246300D03*
X187100Y246300D03*
X360100Y664500D03*
X360100Y740700D03*
X237500Y664400D03*
X237500Y740600D03*
X101200Y572600D03*
X25000Y572600D03*
X300100Y664700D03*
X300100Y740900D03*
X185900Y151800D03*
X109700Y151800D03*
X387500Y248200D03*
X463700Y248200D03*
X110900Y108200D03*
X187100Y108200D03*
X463200Y289300D03*
X387000Y289300D03*
D15*
X518500Y586700D03*
X493100Y586700D03*
X467700Y586700D03*
X442300Y586700D03*
X493100Y434300D03*
X213700Y535900D03*
X416900Y586700D03*
X391500Y586700D03*
X366100Y586700D03*
X340700Y586700D03*
X315300Y586700D03*
X289900Y586700D03*
X264500Y586700D03*
X239100Y586700D03*
X213700Y586700D03*
X213700Y434300D03*
X239100Y434300D03*
X264500Y434300D03*
X289900Y434300D03*
X315300Y434300D03*
X340700Y434300D03*
X366100Y434300D03*
X391500Y434300D03*
X416900Y434300D03*
X442300Y434300D03*
X467700Y434300D03*
X518500Y434300D03*
X543900Y586700D03*
X213700Y510500D03*
X213700Y485100D03*
X213700Y459700D03*
X213700Y561300D03*
X543900Y434300D03*
D16*
X37500Y297700D03*
X37500Y332700D03*
D17*
X535000Y331200D03*
X535000Y296200D03*
D16*
X535000Y192400D03*
X535000Y227400D03*
X36100Y92000D03*
X36100Y127000D03*
X36100Y195600D03*
X36100Y230600D03*
D17*
X533900Y128300D03*
X533900Y93300D03*
D18*
X52190Y659100D02*
X34410Y659100D01*
X34410Y786100D02*
X52190Y786100D01*
X52190Y633700D02*
X34410Y633700D01*
X34410Y760700D02*
X52190Y760700D01*
X52190Y735300D02*
X34410Y735300D01*
X34410Y811500D02*
X52190Y811500D01*
X52190Y684500D02*
X34410Y684500D01*
X34410Y709900D02*
X52190Y709900D01*
X419310Y659100D02*
X437090Y659100D01*
X437090Y786100D02*
X419310Y786100D01*
X419310Y633700D02*
X437090Y633700D01*
X437090Y760700D02*
X419310Y760700D01*
X419310Y735300D02*
X437090Y735300D01*
X437090Y811500D02*
X419310Y811500D01*
X419310Y684500D02*
X437090Y684500D01*
X437090Y709900D02*
X419310Y709900D01*
D14*
X480000Y850000D03*
X454600Y850000D03*
X429200Y850000D03*
D19*
X535000Y296200D02*
X535000Y227400D01*
X485700Y50700D02*
X436300Y50700D01*
X528300Y93300D02*
X533900Y93300D01*
X528300Y93300D02*
X485700Y50700D01*
D20*
X396100Y108200D02*
X333100Y108200D01*
X330700Y105800D01*
D19*
X430000Y57000D02*
X436300Y50700D01*
X430000Y57000D02*
X430000Y80000D01*
X330000Y80000D01*
X90000Y80000D01*
X40000Y130000D01*
X40000Y150000D01*
X70000Y180000D01*
X70000Y200000D01*
X40000Y230000D01*
X40000Y250000D01*
X70000Y280000D01*
X70000Y310000D01*
X47300Y332700D02*
X37500Y332700D01*
X47300Y332700D02*
X70000Y310000D01*
D21*
X330700Y105800D02*
X330700Y80700D01*
X330000Y80000D01*
D22*
X63900Y406300D02*
X100000Y442400D01*
X100000Y450000D01*
D23*
X100000Y450000D03*
D22*
X43300Y735300D02*
X164700Y735300D01*
X190000Y710000D01*
X380000Y710000D01*
X405300Y735300D02*
X428200Y735300D01*
X405300Y735300D02*
X380000Y710000D01*
X192500Y586100D02*
X43300Y735300D01*
X192500Y586100D02*
X192500Y552500D01*
X195000Y550000D01*
X242500Y550000D01*
X340700Y451800D01*
X340700Y434300D01*
X428200Y760700D02*
X43300Y760700D01*
X366100Y434300D02*
X351800Y420000D01*
X305000Y420000D02*
X305000Y450000D01*
X230000Y525000D01*
X305000Y420000D02*
X351800Y420000D01*
X42600Y760000D02*
X43300Y760700D01*
X42600Y760000D02*
X15000Y760000D01*
X125000Y525000D02*
X230000Y525000D01*
X125000Y525000D02*
X15000Y635000D01*
X15000Y760000D01*
X493100Y586700D02*
X493100Y513100D01*
X430000Y450000D01*
X430000Y397500D01*
X132500Y397500D01*
X110000Y420000D01*
D24*
X110000Y420000D03*
X110000Y210000D03*
D21*
X383900Y210000D01*
X463200Y289300D01*
D22*
X135300Y810000D02*
X97900Y847400D01*
X135300Y810000D02*
X390000Y810000D01*
X410000Y830000D01*
X480000Y830000D01*
X480000Y630000D01*
X460000Y610000D01*
X414800Y610000D02*
X391500Y586700D01*
X414800Y610000D02*
X460000Y610000D01*
D19*
X533900Y191300D02*
X533900Y128300D01*
X533900Y191300D02*
X535000Y192400D01*
D22*
X289900Y434300D02*
X224200Y500000D01*
X130000Y500000D01*
X30000Y600000D01*
D24*
X30000Y600000D03*
D22*
X377500Y608400D02*
X428200Y659100D01*
X377500Y608400D02*
X377500Y415000D01*
X265000Y415000D01*
X264500Y415500D01*
X264500Y434300D01*
D23*
X340000Y550000D03*
D22*
X301200Y550000D01*
X264500Y586700D01*
M02*
