G04 EAGLE Gerber RS-274X export*
G75*
%MOMM*%
%FSLAX34Y34*%
%LPD*%
%INSoldermask Top*%
%IPPOS*%
%AMOC8*
5,1,8,0,0,1.08239X$1,22.5*%
G01*
%ADD10C,3.203200*%
%ADD11C,1.854200*%
%ADD12C,1.727200*%
%ADD13C,1.879600*%
%ADD14P,2.034460X8X292.500000*%
%ADD15C,2.082800*%
%ADD16C,1.676400*%
%ADD17P,2.709439X8X112.500000*%
%ADD18P,2.709439X8X292.500000*%
%ADD19C,1.981200*%
%ADD20R,0.812800X1.905000*%
%ADD21C,0.959600*%
%ADD22C,1.703200*%


D10*
X40000Y40000D03*
X530000Y40000D03*
X40000Y870000D03*
X530000Y870000D03*
D11*
X146300Y49900D03*
X146300Y24500D03*
X436300Y50700D03*
X436300Y25300D03*
X38500Y406300D03*
X63900Y406300D03*
D12*
X323080Y105800D02*
X338320Y105800D01*
X338320Y131200D02*
X323080Y131200D01*
X323080Y156600D02*
X338320Y156600D01*
D13*
X358190Y853916D03*
D14*
X342950Y873284D03*
D13*
X327710Y853916D03*
X315010Y873284D03*
X266690Y855316D03*
D14*
X251450Y874684D03*
D13*
X236210Y855316D03*
X223510Y874684D03*
D15*
X248800Y28800D03*
X223400Y28800D03*
X198000Y28800D03*
X323400Y31200D03*
X348800Y31200D03*
X374200Y31200D03*
X97900Y847400D03*
X123300Y847400D03*
X148700Y847400D03*
D12*
X229880Y157100D02*
X245120Y157100D01*
X245120Y131700D02*
X229880Y131700D01*
X229880Y106300D02*
X245120Y106300D01*
X322380Y241100D02*
X337620Y241100D01*
X337620Y266500D02*
X322380Y266500D01*
X322380Y291900D02*
X337620Y291900D01*
X247620Y290700D02*
X232380Y290700D01*
X232380Y265300D02*
X247620Y265300D01*
X247620Y239900D02*
X232380Y239900D01*
D15*
X330100Y663600D03*
X330100Y739800D03*
X397700Y148200D03*
X473900Y148200D03*
X396100Y108200D03*
X472300Y108200D03*
X269300Y664500D03*
X269300Y740700D03*
X208700Y664100D03*
X208700Y740300D03*
X190000Y286200D03*
X113800Y286200D03*
X110900Y246300D03*
X187100Y246300D03*
X360100Y664500D03*
X360100Y740700D03*
X237500Y664400D03*
X237500Y740600D03*
X101200Y572600D03*
X25000Y572600D03*
X300100Y664700D03*
X300100Y740900D03*
X185900Y151800D03*
X109700Y151800D03*
X387500Y248200D03*
X463700Y248200D03*
X110900Y108200D03*
X187100Y108200D03*
X463200Y289300D03*
X387000Y289300D03*
D16*
X518500Y586700D03*
X493100Y586700D03*
X467700Y586700D03*
X442300Y586700D03*
X493100Y434300D03*
X213700Y535900D03*
X416900Y586700D03*
X391500Y586700D03*
X366100Y586700D03*
X340700Y586700D03*
X315300Y586700D03*
X289900Y586700D03*
X264500Y586700D03*
X239100Y586700D03*
X213700Y586700D03*
X213700Y434300D03*
X239100Y434300D03*
X264500Y434300D03*
X289900Y434300D03*
X315300Y434300D03*
X340700Y434300D03*
X366100Y434300D03*
X391500Y434300D03*
X416900Y434300D03*
X442300Y434300D03*
X467700Y434300D03*
X518500Y434300D03*
X543900Y586700D03*
X213700Y510500D03*
X213700Y485100D03*
X213700Y459700D03*
X213700Y561300D03*
X543900Y434300D03*
D17*
X37500Y297700D03*
X37500Y332700D03*
D18*
X535000Y331200D03*
X535000Y296200D03*
D17*
X535000Y192400D03*
X535000Y227400D03*
X36100Y92000D03*
X36100Y127000D03*
X36100Y195600D03*
X36100Y230600D03*
D18*
X533900Y128300D03*
X533900Y93300D03*
D19*
X52190Y659100D02*
X34410Y659100D01*
X34410Y786100D02*
X52190Y786100D01*
X52190Y633700D02*
X34410Y633700D01*
X34410Y760700D02*
X52190Y760700D01*
X52190Y735300D02*
X34410Y735300D01*
X34410Y811500D02*
X52190Y811500D01*
X52190Y684500D02*
X34410Y684500D01*
X34410Y709900D02*
X52190Y709900D01*
X419310Y659100D02*
X437090Y659100D01*
X437090Y786100D02*
X419310Y786100D01*
X419310Y633700D02*
X437090Y633700D01*
X437090Y760700D02*
X419310Y760700D01*
X419310Y735300D02*
X437090Y735300D01*
X437090Y811500D02*
X419310Y811500D01*
X419310Y684500D02*
X437090Y684500D01*
X437090Y709900D02*
X419310Y709900D01*
D20*
X40550Y456588D03*
X53250Y456588D03*
X65950Y456588D03*
X78650Y456588D03*
X78650Y521612D03*
X65950Y521612D03*
X53250Y521612D03*
X40550Y521612D03*
D15*
X480000Y850000D03*
X454600Y850000D03*
X429200Y850000D03*
D21*
X100000Y450000D03*
D22*
X110000Y420000D03*
X110000Y210000D03*
X30000Y600000D03*
D21*
X340000Y550000D03*
M02*
